<?xml version="1.0" encoding="utf-8"?>
<!-- Generator: Adobe Illustrator 27.5.0, SVG Export Plug-In . SVG Version: 6.00 Build 0)  -->
<svg version="1.1" xmlns="http://www.w3.org/2000/svg" xmlns:xlink="http://www.w3.org/1999/xlink" x="0px" y="0px"
	 viewBox="0 0 500 500" style="enable-background:new 0 0 500 500;" xml:space="preserve">
<g id="Background_Simple">
	<g>
		<path style="fill:#92E3A9;" d="M471.009,238.296c-4.936,41.801-24.022,90.403-62.141,112.73
			c-57.595,33.742-52.774,85.638-165.193,108.199c-17.527,3.519-34.161,5-49.846,4.708c-8.432-0.156-16.593-0.836-24.465-1.995
			C97.916,451.502,49.834,401.838,32.194,341.888C8.98,263.043,55.333,211.424,86.056,180.324
			c30.724-31.1,53.226-128.004,163.567-151.052c16.824-3.507,34.029-5.296,51.229-4.867c39.259,0.963,82.08,13.855,111.71,40.761
			c2.225,2.022,4.388,4.118,6.497,6.278C460.242,113.715,477.742,181.307,471.009,238.296z"/>
		<path style="opacity:0.7;fill:#FFFFFF;" d="M471.009,238.296c-4.936,41.801-24.022,90.403-62.141,112.73
			c-57.595,33.742-52.774,85.638-165.193,108.199c-17.527,3.519-34.161,5-49.846,4.708c-8.432-0.156-16.593-0.836-24.465-1.995
			C97.916,451.502,49.834,401.838,32.194,341.888C8.98,263.043,55.333,211.424,86.056,180.324
			c30.724-31.1,53.226-128.004,163.567-151.052c16.824-3.507,34.029-5.296,51.229-4.867c39.259,0.963,82.08,13.855,111.71,40.761
			c2.225,2.022,4.388,4.118,6.497,6.278C460.242,113.715,477.742,181.307,471.009,238.296z"/>
	</g>
</g>
<g id="Table">
	<g>
		
			<line style="fill:none;stroke:#263238;stroke-linecap:round;stroke-linejoin:round;stroke-miterlimit:10;" x1="463.785" y1="282.927" x2="478.968" y2="282.927"/>
		
			<line style="fill:none;stroke:#263238;stroke-linecap:round;stroke-linejoin:round;stroke-miterlimit:10;" x1="22.598" y1="282.927" x2="456.976" y2="282.927"/>
	</g>
</g>
<g id="Gears">
	<g>
		<g>
			<path style="fill:none;stroke:#263238;stroke-miterlimit:10;" d="M440.464,165.835v-7.828l-7.497-1.072
				c-0.696-3.835-2.188-7.392-4.306-10.489l4.559-6.081l-5.535-5.535l-6.059,4.543c-3.086-2.137-6.632-3.651-10.461-4.37
				l-1.076-7.526h-7.828l-1.072,7.497c-3.835,0.696-7.392,2.188-10.489,4.306l-6.081-4.559l-5.535,5.535l4.543,6.059
				c-2.137,3.086-3.651,6.632-4.37,10.462l-7.526,1.076v7.828l7.497,1.072c0.696,3.835,2.188,7.392,4.306,10.489l-4.559,6.081
				l5.535,5.535l6.059-4.543c3.086,2.137,6.633,3.651,10.461,4.37l1.076,7.525h7.828l1.072-7.497
				c3.835-0.696,7.392-2.188,10.489-4.305l6.081,4.559l5.535-5.535l-4.543-6.059c2.137-3.086,3.651-6.633,4.37-10.462
				L440.464,165.835z M406.097,180.822c-10.482,0-18.978-8.497-18.978-18.978c0-10.481,8.497-18.978,18.978-18.978
				c10.481,0,18.978,8.497,18.978,18.978C425.075,172.325,416.578,180.822,406.097,180.822z"/>
			<path style="fill:none;stroke:#263238;stroke-miterlimit:10;" d="M462.162,212.543v-5.598l-5.362-0.767
				c-0.498-2.742-1.564-5.286-3.079-7.501l3.26-4.348l-3.958-3.958l-4.333,3.249c-2.207-1.528-4.743-2.611-7.481-3.125l-0.77-5.382
				h-5.598l-0.767,5.361c-2.742,0.498-5.286,1.564-7.501,3.079l-4.348-3.26l-3.958,3.958l3.249,4.333
				c-1.528,2.207-2.611,4.743-3.125,7.481l-5.382,0.77v5.598l5.362,0.767c0.498,2.742,1.564,5.286,3.079,7.501l-3.26,4.348
				l3.958,3.958l4.333-3.249c2.207,1.528,4.743,2.611,7.481,3.125l0.77,5.382h5.598l0.767-5.361
				c2.742-0.498,5.286-1.564,7.501-3.079l4.348,3.26l3.958-3.958l-3.249-4.333c1.528-2.207,2.611-4.743,3.125-7.481L462.162,212.543
				z M437.585,223.261c-7.496,0-13.572-6.076-13.572-13.572s6.076-13.572,13.572-13.572s13.572,6.076,13.572,13.572
				S445.081,223.261,437.585,223.261z"/>
		</g>
		<g>
			<path style="fill:none;stroke:#263238;stroke-miterlimit:10;" d="M66.517,208.692v7.143l6.841,0.979
				c0.635,3.499,1.996,6.745,3.929,9.571l-4.16,5.549l5.051,5.051l5.529-4.145c2.816,1.95,6.052,3.332,9.546,3.988l0.982,6.867
				h7.143l0.979-6.841c3.499-0.635,6.745-1.996,9.571-3.929l5.549,4.16l5.051-5.051l-4.145-5.529
				c1.95-2.816,3.332-6.052,3.988-9.546l6.867-0.982v-7.143l-6.841-0.979c-0.635-3.499-1.996-6.745-3.929-9.571l4.16-5.549
				l-5.051-5.051l-5.529,4.145c-2.816-1.95-6.052-3.332-9.546-3.988l-0.982-6.867h-7.143l-0.978,6.841
				c-3.499,0.635-6.745,1.996-9.571,3.929l-5.549-4.16l-5.051,5.051l4.145,5.529c-1.95,2.816-3.332,6.052-3.988,9.546
				L66.517,208.692z M97.878,195.016c9.564,0,17.318,7.753,17.318,17.318c0,9.564-7.753,17.318-17.318,17.318
				s-17.318-7.753-17.318-17.318C80.56,202.769,88.313,195.016,97.878,195.016z"/>
			<path style="fill:none;stroke:#263238;stroke-miterlimit:10;" d="M48.846,169.808v4.357l4.173,0.597
				c0.388,2.134,1.218,4.114,2.397,5.838l-2.538,3.385l3.081,3.081l3.373-2.529c1.718,1.189,3.692,2.033,5.823,2.432l0.599,4.189
				h4.357l0.597-4.173c2.134-0.388,4.114-1.218,5.838-2.397l3.385,2.538l3.081-3.081l-2.529-3.373
				c1.189-1.718,2.032-3.692,2.432-5.823l4.189-0.599v-4.357l-4.173-0.597c-0.388-2.135-1.218-4.114-2.396-5.838l2.538-3.385
				l-3.081-3.081l-3.373,2.529c-1.718-1.189-3.692-2.033-5.823-2.432l-0.599-4.189H65.84l-0.597,4.173
				c-2.135,0.387-4.114,1.218-5.838,2.396l-3.385-2.538l-3.081,3.081l2.529,3.373c-1.189,1.718-2.032,3.692-2.432,5.823
				L48.846,169.808z M67.976,161.466c5.834,0,10.564,4.729,10.564,10.564c0,5.834-4.729,10.563-10.564,10.563
				c-5.834,0-10.564-4.729-10.564-10.563C57.412,166.195,62.142,161.466,67.976,161.466z"/>
			<path style="fill:none;stroke:#263238;stroke-miterlimit:10;" d="M216.696,90.298v5.984l5.731,0.82
				c0.532,2.931,1.672,5.65,3.291,8.018l-3.485,4.648l4.231,4.231l4.632-3.472c2.359,1.633,5.07,2.791,7.997,3.34l0.823,5.752h5.984
				l0.82-5.731c2.931-0.532,5.65-1.672,8.018-3.291l4.648,3.485l4.231-4.231l-3.473-4.632c1.633-2.359,2.791-5.07,3.34-7.997
				l5.752-0.823v-5.984l-5.731-0.82c-0.532-2.931-1.672-5.65-3.291-8.018l3.485-4.648l-4.231-4.231l-4.632,3.472
				c-2.359-1.633-5.07-2.791-7.997-3.34l-0.823-5.752h-5.984l-0.82,5.731c-2.931,0.532-5.65,1.672-8.018,3.291l-4.648-3.485
				l-4.231,4.231l3.473,4.632c-1.633,2.359-2.791,5.07-3.34,7.996L216.696,90.298z M242.966,78.842
				c8.012,0,14.507,6.495,14.507,14.507c0,8.012-6.495,14.507-14.507,14.507c-8.012,0-14.507-6.495-14.507-14.507
				C228.459,85.337,234.954,78.842,242.966,78.842z"/>
		</g>
	</g>
</g>
<g id="Device">
	<g>
		<g id="XMLID_222_">
			<path id="XMLID_4_" style="fill:#263238;stroke:#263238;stroke-linecap:round;stroke-linejoin:round;stroke-miterlimit:10;" d="
				M397.976,289.413h-291.04V97.967c0-4.402,3.569-7.971,7.971-7.971h275.099c4.402,0,7.971,3.569,7.971,7.971V289.413z"/>
			
				<polygon id="XMLID_46_" style="fill:#FFFFFF;stroke:#263238;stroke-linecap:round;stroke-linejoin:round;stroke-miterlimit:10;" points="
				441.632,377.569 63.279,377.569 106.935,289.413 397.976,289.413 			"/>
			
				<rect id="XMLID_44_" x="124.564" y="105.786" style="fill:#92E3A9;stroke:#263238;stroke-linecap:round;stroke-linejoin:round;stroke-miterlimit:10;" width="255.783" height="167.837"/>
			<g id="XMLID_51_">
				
					<polygon id="XMLID_74_" style="fill:#263238;stroke:#FFFFFF;stroke-linecap:round;stroke-linejoin:round;stroke-miterlimit:10;" points="
					240.315,317.318 240.82,306.576 225.442,306.576 224.423,317.318 				"/>
				
					<polygon id="XMLID_75_" style="fill:#263238;stroke:#FFFFFF;stroke-linecap:round;stroke-linejoin:round;stroke-miterlimit:10;" points="
					272.1,317.318 271.576,306.576 256.197,306.576 256.207,317.318 				"/>
				
					<polygon id="XMLID_76_" style="fill:#263238;stroke:#FFFFFF;stroke-linecap:round;stroke-linejoin:round;stroke-miterlimit:10;" points="
					354.871,328.804 371.313,328.804 367.453,317.318 351.561,317.318 				"/>
				
					<polygon id="XMLID_77_" style="fill:#263238;stroke:#FFFFFF;stroke-linecap:round;stroke-linejoin:round;stroke-miterlimit:10;" points="
					224.423,317.318 225.442,306.576 210.063,306.576 208.531,317.318 				"/>
				
					<polygon id="XMLID_78_" style="fill:#263238;stroke:#FFFFFF;stroke-linecap:round;stroke-linejoin:round;stroke-miterlimit:10;" points="
					192.639,317.318 194.686,306.576 179.307,306.576 176.746,317.318 				"/>
				
					<polygon id="XMLID_80_" style="fill:#263238;stroke:#FFFFFF;stroke-linecap:round;stroke-linejoin:round;stroke-miterlimit:10;" points="
					335.669,317.318 333.087,306.576 317.71,306.576 319.776,317.318 				"/>
				
					<polygon id="XMLID_81_" style="fill:#263238;stroke:#FFFFFF;stroke-linecap:round;stroke-linejoin:round;stroke-miterlimit:10;" points="
					351.561,317.318 348.465,306.576 333.087,306.576 335.669,317.318 				"/>
				
					<polygon id="XMLID_82_" style="fill:#263238;stroke:#FFFFFF;stroke-linecap:round;stroke-linejoin:round;stroke-miterlimit:10;" points="
					176.746,317.318 179.307,306.576 163.93,306.576 160.854,317.318 				"/>
				
					<polygon id="XMLID_83_" style="fill:#263238;stroke:#FFFFFF;stroke-linecap:round;stroke-linejoin:round;stroke-miterlimit:10;" points="
					287.992,317.318 286.953,306.576 271.576,306.576 272.1,317.318 				"/>
				
					<polygon id="XMLID_84_" style="fill:#263238;stroke:#FFFFFF;stroke-linecap:round;stroke-linejoin:round;stroke-miterlimit:10;" points="
					367.453,317.318 363.843,306.576 348.465,306.576 351.561,317.318 				"/>
				
					<polygon id="XMLID_85_" style="fill:#263238;stroke:#FFFFFF;stroke-linecap:round;stroke-linejoin:round;stroke-miterlimit:10;" points="
					319.776,317.318 317.71,306.576 302.332,306.576 303.884,317.318 				"/>
				
					<polygon id="XMLID_86_" style="fill:#263238;stroke:#FFFFFF;stroke-linecap:round;stroke-linejoin:round;stroke-miterlimit:10;" points="
					303.884,317.318 302.332,306.576 286.953,306.576 287.992,317.318 				"/>
				
					<polygon id="XMLID_87_" style="fill:#263238;stroke:#FFFFFF;stroke-linecap:round;stroke-linejoin:round;stroke-miterlimit:10;" points="
					256.207,317.318 256.197,306.576 240.82,306.576 240.315,317.318 				"/>
				
					<polygon id="XMLID_94_" style="fill:#263238;stroke:#FFFFFF;stroke-linecap:round;stroke-linejoin:round;stroke-miterlimit:10;" points="
					144.962,317.318 129.07,317.318 124.682,328.804 141.123,328.804 				"/>
				
					<polygon id="XMLID_95_" style="fill:#263238;stroke:#FFFFFF;stroke-linecap:round;stroke-linejoin:round;stroke-miterlimit:10;" points="
					148.552,306.576 133.174,306.576 129.07,317.318 144.962,317.318 				"/>
				
					<polygon id="XMLID_96_" style="fill:#263238;stroke:#FFFFFF;stroke-linecap:round;stroke-linejoin:round;stroke-miterlimit:10;" points="
					160.854,317.318 163.93,306.576 148.552,306.576 144.962,317.318 				"/>
				
					<polygon id="XMLID_97_" style="fill:#263238;stroke:#FFFFFF;stroke-linecap:round;stroke-linejoin:round;stroke-miterlimit:10;" points="
					119.979,341.113 114.927,354.336 132.591,354.336 137.01,341.113 				"/>
				
					<polygon id="XMLID_98_" style="fill:#263238;stroke:#FFFFFF;stroke-linecap:round;stroke-linejoin:round;stroke-miterlimit:10;" points="
					141.123,328.804 124.682,328.804 119.979,341.113 137.01,341.113 				"/>
				
					<polygon id="XMLID_99_" style="fill:#263238;stroke:#FFFFFF;stroke-linecap:round;stroke-linejoin:round;stroke-miterlimit:10;" points="
					137.01,341.113 132.591,354.336 150.255,354.336 154.041,341.113 				"/>
				
					<polygon id="XMLID_100_" style="fill:#263238;stroke:#FFFFFF;stroke-linecap:round;stroke-linejoin:round;stroke-miterlimit:10;" points="
					208.531,317.318 210.063,306.576 194.686,306.576 192.639,317.318 				"/>
				
					<polygon id="XMLID_101_" style="fill:#263238;stroke:#FFFFFF;stroke-linecap:round;stroke-linejoin:round;stroke-miterlimit:10;" points="
					206.892,328.804 208.531,317.318 192.639,317.318 190.45,328.804 				"/>
				
					<polygon id="XMLID_102_" style="fill:#263238;stroke:#FFFFFF;stroke-linecap:round;stroke-linejoin:round;stroke-miterlimit:10;" points="
					190.45,328.804 192.639,317.318 176.746,317.318 174.008,328.804 				"/>
				
					<polygon id="XMLID_103_" style="fill:#263238;stroke:#FFFFFF;stroke-linecap:round;stroke-linejoin:round;stroke-miterlimit:10;" points="
					223.334,328.804 224.423,317.318 208.531,317.318 206.892,328.804 				"/>
				
					<polygon id="XMLID_104_" style="fill:#263238;stroke:#FFFFFF;stroke-linecap:round;stroke-linejoin:round;stroke-miterlimit:10;" points="
					160.854,317.318 144.962,317.318 141.123,328.804 157.566,328.804 				"/>
				
					<polygon id="XMLID_105_" style="fill:#263238;stroke:#FFFFFF;stroke-linecap:round;stroke-linejoin:round;stroke-miterlimit:10;" points="
					358.417,341.113 375.449,341.113 371.313,328.804 354.871,328.804 				"/>
				
					<polygon id="XMLID_106_" style="fill:#263238;stroke:#FFFFFF;stroke-linecap:round;stroke-linejoin:round;stroke-miterlimit:10;" points="
					174.008,328.804 176.746,317.318 160.854,317.318 157.566,328.804 				"/>
				
					<polygon id="XMLID_107_" style="fill:#263238;stroke:#FFFFFF;stroke-linecap:round;stroke-linejoin:round;stroke-miterlimit:10;" points="
					141.123,328.804 137.01,341.113 154.041,341.113 157.566,328.804 				"/>
				
					<polygon id="XMLID_108_" style="fill:#263238;stroke:#FFFFFF;stroke-linecap:round;stroke-linejoin:round;stroke-miterlimit:10;" points="
					321.986,328.804 319.776,317.318 303.884,317.318 305.544,328.804 				"/>
				
					<polygon id="XMLID_109_" style="fill:#263238;stroke:#FFFFFF;stroke-linecap:round;stroke-linejoin:round;stroke-miterlimit:10;" points="
					305.544,328.804 303.884,317.318 287.992,317.318 289.102,328.804 				"/>
				
					<polygon id="XMLID_110_" style="fill:#263238;stroke:#FFFFFF;stroke-linecap:round;stroke-linejoin:round;stroke-miterlimit:10;" points="
					354.871,328.804 351.561,317.318 335.669,317.318 338.428,328.804 				"/>
				
					<polygon id="XMLID_111_" style="fill:#263238;stroke:#FFFFFF;stroke-linecap:round;stroke-linejoin:round;stroke-miterlimit:10;" points="
					256.218,328.804 256.207,317.318 240.315,317.318 239.776,328.804 				"/>
				
					<polygon id="XMLID_112_" style="fill:#263238;stroke:#FFFFFF;stroke-linecap:round;stroke-linejoin:round;stroke-miterlimit:10;" points="
					289.102,328.804 287.992,317.318 272.1,317.318 272.66,328.804 				"/>
				
					<polygon id="XMLID_113_" style="fill:#263238;stroke:#FFFFFF;stroke-linecap:round;stroke-linejoin:round;stroke-miterlimit:10;" points="
					272.66,328.804 272.1,317.318 256.207,317.318 256.218,328.804 				"/>
				
					<polygon id="XMLID_114_" style="fill:#263238;stroke:#FFFFFF;stroke-linecap:round;stroke-linejoin:round;stroke-miterlimit:10;" points="
					239.776,328.804 240.315,317.318 224.423,317.318 223.334,328.804 				"/>
				
					<polygon id="XMLID_115_" style="fill:#263238;stroke:#FFFFFF;stroke-linecap:round;stroke-linejoin:round;stroke-miterlimit:10;" points="
					289.102,328.804 290.292,341.113 307.323,341.113 305.544,328.804 				"/>
				
					<polygon id="XMLID_116_" style="fill:#263238;stroke:#FFFFFF;stroke-linecap:round;stroke-linejoin:round;stroke-miterlimit:10;" points="
					305.544,328.804 307.323,341.113 324.355,341.113 321.986,328.804 				"/>
				
					<polygon id="XMLID_117_" style="fill:#263238;stroke:#FFFFFF;stroke-linecap:round;stroke-linejoin:round;stroke-miterlimit:10;" points="
					157.566,328.804 154.041,341.113 171.073,341.113 174.008,328.804 				"/>
				
					<polygon id="XMLID_118_" style="fill:#263238;stroke:#FFFFFF;stroke-linecap:round;stroke-linejoin:round;stroke-miterlimit:10;" points="
					321.986,328.804 324.355,341.113 341.386,341.113 338.428,328.804 				"/>
				
					<polygon id="XMLID_119_" style="fill:#263238;stroke:#FFFFFF;stroke-linecap:round;stroke-linejoin:round;stroke-miterlimit:10;" points="
					256.218,328.804 256.229,341.113 273.261,341.113 272.66,328.804 				"/>
				
					<polygon id="XMLID_120_" style="fill:#263238;stroke:#FFFFFF;stroke-linecap:round;stroke-linejoin:round;stroke-miterlimit:10;" points="
					338.428,328.804 341.386,341.113 358.417,341.113 354.871,328.804 				"/>
				
					<polygon id="XMLID_121_" style="fill:#263238;stroke:#FFFFFF;stroke-linecap:round;stroke-linejoin:round;stroke-miterlimit:10;" points="
					272.66,328.804 273.261,341.113 290.292,341.113 289.102,328.804 				"/>
				
					<polygon id="XMLID_122_" style="fill:#263238;stroke:#FFFFFF;stroke-linecap:round;stroke-linejoin:round;stroke-miterlimit:10;" points="
					190.45,328.804 188.104,341.113 205.135,341.113 206.892,328.804 				"/>
				
					<polygon id="XMLID_123_" style="fill:#263238;stroke:#FFFFFF;stroke-linecap:round;stroke-linejoin:round;stroke-miterlimit:10;" points="
					174.008,328.804 171.073,341.113 188.104,341.113 190.45,328.804 				"/>
				
					<polygon id="XMLID_124_" style="fill:#263238;stroke:#FFFFFF;stroke-linecap:round;stroke-linejoin:round;stroke-miterlimit:10;" points="
					239.776,328.804 239.198,341.113 256.229,341.113 256.218,328.804 				"/>
				
					<polygon id="XMLID_125_" style="fill:#263238;stroke:#FFFFFF;stroke-linecap:round;stroke-linejoin:round;stroke-miterlimit:10;" points="
					223.334,328.804 222.167,341.113 239.198,341.113 239.776,328.804 				"/>
				
					<polygon id="XMLID_126_" style="fill:#263238;stroke:#FFFFFF;stroke-linecap:round;stroke-linejoin:round;stroke-miterlimit:10;" points="
					206.892,328.804 205.135,341.113 222.167,341.113 223.334,328.804 				"/>
				
					<polygon id="XMLID_127_" style="fill:#263238;stroke:#FFFFFF;stroke-linecap:round;stroke-linejoin:round;stroke-miterlimit:10;" points="
					338.428,328.804 335.669,317.318 319.776,317.318 321.986,328.804 				"/>
				
					<polygon id="XMLID_132_" style="fill:#263238;stroke:#FFFFFF;stroke-linecap:round;stroke-linejoin:round;stroke-miterlimit:10;" points="
					148.552,306.576 152.226,295.581 137.375,295.581 133.174,306.576 				"/>
				
					<polygon id="XMLID_135_" style="fill:#263238;stroke:#FFFFFF;stroke-linecap:round;stroke-linejoin:round;stroke-miterlimit:10;" points="
					133.174,306.576 118.979,306.576 114.4,317.318 129.07,317.318 				"/>
				
					<polygon id="XMLID_136_" style="fill:#263238;stroke:#FFFFFF;stroke-linecap:round;stroke-linejoin:round;stroke-miterlimit:10;" points="
					137.375,295.581 123.665,295.581 118.979,306.576 133.174,306.576 				"/>
				
					<polygon id="XMLID_137_" style="fill:#263238;stroke:#FFFFFF;stroke-linecap:round;stroke-linejoin:round;stroke-miterlimit:10;" points="
					129.07,317.318 114.4,317.318 109.504,328.804 124.682,328.804 				"/>
				
					<polygon id="XMLID_138_" style="fill:#263238;stroke:#FFFFFF;stroke-linecap:round;stroke-linejoin:round;stroke-miterlimit:10;" points="
					124.682,328.804 109.504,328.804 104.257,341.113 119.979,341.113 				"/>
				
					<polygon id="XMLID_3_" style="fill:#263238;stroke:#FFFFFF;stroke-linecap:round;stroke-linejoin:round;stroke-miterlimit:10;" points="
					119.979,341.113 104.257,341.113 98.621,354.336 114.927,354.336 				"/>
				
					<polygon id="XMLID_2_" style="fill:#263238;stroke:#FFFFFF;stroke-linecap:round;stroke-linejoin:round;stroke-miterlimit:10;" points="
					383.345,317.318 387.755,328.804 402.3,328.804 397.404,317.318 				"/>
				
					<polygon id="XMLID_147_" style="fill:#263238;stroke:#FFFFFF;stroke-linecap:round;stroke-linejoin:round;stroke-miterlimit:10;" points="
					392.48,341.113 407.546,341.113 402.3,328.804 387.755,328.804 				"/>
				
					<polygon id="XMLID_148_" style="fill:#263238;stroke:#FFFFFF;stroke-linecap:round;stroke-linejoin:round;stroke-miterlimit:10;" points="
					397.557,354.336 413.183,354.336 407.546,341.113 392.48,341.113 				"/>
				
					<polygon id="XMLID_155_" style="fill:#263238;stroke:#FFFFFF;stroke-linecap:round;stroke-linejoin:round;stroke-miterlimit:10;" points="
					271.576,306.576 271.039,295.581 256.187,295.581 256.197,306.576 				"/>
				
					<polygon id="XMLID_156_" style="fill:#263238;stroke:#FFFFFF;stroke-linecap:round;stroke-linejoin:round;stroke-miterlimit:10;" points="
					383.345,317.318 397.404,317.318 392.825,306.576 379.221,306.576 				"/>
				
					<polygon id="XMLID_157_" style="fill:#263238;stroke:#FFFFFF;stroke-linecap:round;stroke-linejoin:round;stroke-miterlimit:10;" points="
					375.449,341.113 392.48,341.113 387.755,328.804 371.313,328.804 				"/>
				
					<polygon id="XMLID_158_" style="fill:#263238;stroke:#FFFFFF;stroke-linecap:round;stroke-linejoin:round;stroke-miterlimit:10;" points="
					163.93,306.576 167.077,295.581 152.226,295.581 148.552,306.576 				"/>
				
					<polygon id="XMLID_159_" style="fill:#263238;stroke:#FFFFFF;stroke-linecap:round;stroke-linejoin:round;stroke-miterlimit:10;" points="
					363.843,306.576 367.453,317.318 383.345,317.318 379.221,306.576 				"/>
				
					<polygon id="XMLID_160_" style="fill:#263238;stroke:#FFFFFF;stroke-linecap:round;stroke-linejoin:round;stroke-miterlimit:10;" points="
					392.825,306.576 388.138,295.581 375,295.581 379.221,306.576 				"/>
				
					<polygon id="XMLID_161_" style="fill:#263238;stroke:#FFFFFF;stroke-linecap:round;stroke-linejoin:round;stroke-miterlimit:10;" points="
					379.221,306.576 375,295.581 360.149,295.581 363.843,306.576 				"/>
				
					<polygon id="XMLID_162_" style="fill:#263238;stroke:#FFFFFF;stroke-linecap:round;stroke-linejoin:round;stroke-miterlimit:10;" points="
					324.355,341.113 326.899,354.336 344.563,354.336 341.386,341.113 				"/>
				
					<polygon id="XMLID_163_" style="fill:#263238;stroke:#FFFFFF;stroke-linecap:round;stroke-linejoin:round;stroke-miterlimit:10;" points="
					379.892,354.336 397.557,354.336 392.48,341.113 375.449,341.113 				"/>
				
					<polygon id="XMLID_164_" style="fill:#263238;stroke:#FFFFFF;stroke-linecap:round;stroke-linejoin:round;stroke-miterlimit:10;" points="
					363.843,306.576 360.149,295.581 345.297,295.581 348.465,306.576 				"/>
				
					<polygon id="XMLID_167_" style="fill:#263238;stroke:#FFFFFF;stroke-linecap:round;stroke-linejoin:round;stroke-miterlimit:10;" points="
					358.417,341.113 362.228,354.336 379.892,354.336 375.449,341.113 				"/>
				
					<polygon id="XMLID_168_" style="fill:#263238;stroke:#FFFFFF;stroke-linecap:round;stroke-linejoin:round;stroke-miterlimit:10;" points="
					341.386,341.113 344.563,354.336 362.228,354.336 358.417,341.113 				"/>
				
					<polygon id="XMLID_169_" style="fill:#263238;stroke:#FFFFFF;stroke-linecap:round;stroke-linejoin:round;stroke-miterlimit:10;" points="
					371.313,328.804 387.755,328.804 383.345,317.318 367.453,317.318 				"/>
				
					<polygon id="XMLID_170_" style="fill:#263238;stroke:#FFFFFF;stroke-linecap:round;stroke-linejoin:round;stroke-miterlimit:10;" points="
					225.442,306.576 226.484,295.581 211.633,295.581 210.063,306.576 				"/>
				
					<polygon id="XMLID_171_" style="fill:#263238;stroke:#FFFFFF;stroke-linecap:round;stroke-linejoin:round;stroke-miterlimit:10;" points="
					348.465,306.576 345.297,295.581 330.446,295.581 333.087,306.576 				"/>
				
					<polygon id="XMLID_172_" style="fill:#263238;stroke:#FFFFFF;stroke-linecap:round;stroke-linejoin:round;stroke-miterlimit:10;" points="
					210.063,306.576 211.633,295.581 196.781,295.581 194.686,306.576 				"/>
				
					<polygon id="XMLID_173_" style="fill:#263238;stroke:#FFFFFF;stroke-linecap:round;stroke-linejoin:round;stroke-miterlimit:10;" points="
					256.197,306.576 256.187,295.581 241.336,295.581 240.82,306.576 				"/>
				
					<polygon id="XMLID_174_" style="fill:#263238;stroke:#FFFFFF;stroke-linecap:round;stroke-linejoin:round;stroke-miterlimit:10;" points="
					194.686,306.576 196.781,295.581 181.929,295.581 179.307,306.576 				"/>
				
					<polygon id="XMLID_175_" style="fill:#263238;stroke:#FFFFFF;stroke-linecap:round;stroke-linejoin:round;stroke-miterlimit:10;" points="
					179.307,306.576 181.929,295.581 167.077,295.581 163.93,306.576 				"/>
				
					<polygon id="XMLID_176_" style="fill:#263238;stroke:#FFFFFF;stroke-linecap:round;stroke-linejoin:round;stroke-miterlimit:10;" points="
					240.82,306.576 241.336,295.581 226.484,295.581 225.442,306.576 				"/>
				
					<polygon id="XMLID_177_" style="fill:#263238;stroke:#FFFFFF;stroke-linecap:round;stroke-linejoin:round;stroke-miterlimit:10;" points="
					333.087,306.576 330.446,295.581 315.594,295.581 317.71,306.576 				"/>
				
					<polygon id="XMLID_178_" style="fill:#263238;stroke:#FFFFFF;stroke-linecap:round;stroke-linejoin:round;stroke-miterlimit:10;" points="
					317.71,306.576 315.594,295.581 300.742,295.581 302.332,306.576 				"/>
				
					<polygon id="XMLID_179_" style="fill:#263238;stroke:#FFFFFF;stroke-linecap:round;stroke-linejoin:round;stroke-miterlimit:10;" points="
					286.953,306.576 285.891,295.581 271.039,295.581 271.576,306.576 				"/>
				
					<polygon id="XMLID_53_" style="fill:#263238;stroke:#FFFFFF;stroke-linecap:round;stroke-linejoin:round;stroke-miterlimit:10;" points="
					324.355,341.113 307.323,341.113 290.292,341.113 273.261,341.113 256.229,341.113 239.198,341.113 222.167,341.113 
					205.135,341.113 188.104,341.113 171.073,341.113 154.041,341.113 150.255,354.336 167.919,354.336 185.584,354.336 
					203.248,354.336 220.913,354.336 238.577,354.336 256.241,354.336 273.906,354.336 291.57,354.336 309.234,354.336 
					326.899,354.336 				"/>
				
					<polygon id="XMLID_181_" style="fill:#263238;stroke:#FFFFFF;stroke-linecap:round;stroke-linejoin:round;stroke-miterlimit:10;" points="
					302.332,306.576 300.742,295.581 285.891,295.581 286.953,306.576 				"/>
			</g>
			
				<rect id="XMLID_45_" x="63.279" y="377.569" style="fill:#263238;stroke:#263238;stroke-linecap:round;stroke-linejoin:round;stroke-miterlimit:10;" width="378.525" height="5.371"/>
		</g>
	</g>
</g>
<g id="Coding">
	<g>
		<g>
			
				<line style="fill:none;stroke:#263238;stroke-width:3;stroke-linecap:round;stroke-linejoin:round;stroke-miterlimit:10;" x1="141.055" y1="119.022" x2="157.545" y2="119.022"/>
			
				<line style="fill:none;stroke:#FFFFFF;stroke-width:3;stroke-linecap:round;stroke-linejoin:round;stroke-miterlimit:10;" x1="141.055" y1="127.49" x2="203.005" y2="127.49"/>
			
				<line style="fill:none;stroke:#FFFFFF;stroke-width:3;stroke-linecap:round;stroke-linejoin:round;stroke-miterlimit:10;" x1="236.877" y1="127.49" x2="298.827" y2="127.49"/>
			
				<line style="fill:none;stroke:#263238;stroke-width:3;stroke-linecap:round;stroke-linejoin:round;stroke-miterlimit:10;" x1="207.016" y1="127.49" x2="231.529" y2="127.49"/>
			
				<line style="fill:none;stroke:#263238;stroke-width:3;stroke-linecap:round;stroke-linejoin:round;stroke-miterlimit:10;" x1="141.055" y1="135.958" x2="176.71" y2="135.958"/>
			
				<line style="fill:none;stroke:#263238;stroke-width:3;stroke-linecap:round;stroke-linejoin:round;stroke-miterlimit:10;" x1="181.166" y1="135.958" x2="216.821" y2="135.958"/>
			
				<line style="fill:none;stroke:#263238;stroke-width:3;stroke-linecap:round;stroke-linejoin:round;stroke-miterlimit:10;" x1="221.278" y1="135.958" x2="256.933" y2="135.958"/>
			
				<line style="fill:none;stroke:#263238;stroke-width:3;stroke-linecap:round;stroke-linejoin:round;stroke-miterlimit:10;" x1="261.39" y1="135.958" x2="276.543" y2="135.958"/>
			
				<line style="fill:none;stroke:#263238;stroke-width:3;stroke-linecap:round;stroke-linejoin:round;stroke-miterlimit:10;" x1="162.002" y1="119.022" x2="178.492" y2="119.022"/>
			<g>
				
					<line style="fill:none;stroke:#263238;stroke-width:3;stroke-linecap:round;stroke-linejoin:round;stroke-miterlimit:10;" x1="260.053" y1="119.022" x2="276.543" y2="119.022"/>
				
					<line style="fill:none;stroke:#FFFFFF;stroke-width:3;stroke-linecap:round;stroke-linejoin:round;stroke-miterlimit:10;" x1="238.214" y1="119.022" x2="254.704" y2="119.022"/>
				
					<line style="fill:none;stroke:#263238;stroke-width:3;stroke-linecap:round;stroke-linejoin:round;stroke-miterlimit:10;" x1="182.949" y1="119.022" x2="231.083" y2="119.022"/>
			</g>
		</g>
		<g>
			
				<line style="fill:none;stroke:#263238;stroke-width:3;stroke-linecap:round;stroke-linejoin:round;stroke-miterlimit:10;" x1="141.055" y1="170.721" x2="157.545" y2="170.721"/>
			
				<line style="fill:none;stroke:#FFFFFF;stroke-width:3;stroke-linecap:round;stroke-linejoin:round;stroke-miterlimit:10;" x1="141.055" y1="179.189" x2="203.005" y2="179.189"/>
			
				<line style="fill:none;stroke:#263238;stroke-width:3;stroke-linecap:round;stroke-linejoin:round;stroke-miterlimit:10;" x1="236.877" y1="179.189" x2="298.827" y2="179.189"/>
			
				<line style="fill:none;stroke:#263238;stroke-width:3;stroke-linecap:round;stroke-linejoin:round;stroke-miterlimit:10;" x1="207.016" y1="179.189" x2="231.529" y2="179.189"/>
			
				<line style="fill:none;stroke:#263238;stroke-width:3;stroke-linecap:round;stroke-linejoin:round;stroke-miterlimit:10;" x1="141.055" y1="187.658" x2="176.71" y2="187.658"/>
			
				<line style="fill:none;stroke:#263238;stroke-width:3;stroke-linecap:round;stroke-linejoin:round;stroke-miterlimit:10;" x1="181.166" y1="187.658" x2="216.821" y2="187.658"/>
			
				<line style="fill:none;stroke:#FFFFFF;stroke-width:3;stroke-linecap:round;stroke-linejoin:round;stroke-miterlimit:10;" x1="221.278" y1="187.658" x2="256.933" y2="187.658"/>
			
				<line style="fill:none;stroke:#263238;stroke-width:3;stroke-linecap:round;stroke-linejoin:round;stroke-miterlimit:10;" x1="261.39" y1="187.658" x2="276.543" y2="187.658"/>
			
				<line style="fill:none;stroke:#263238;stroke-width:3;stroke-linecap:round;stroke-linejoin:round;stroke-miterlimit:10;" x1="162.002" y1="170.721" x2="178.492" y2="170.721"/>
			<g>
				
					<line style="fill:none;stroke:#263238;stroke-width:3;stroke-linecap:round;stroke-linejoin:round;stroke-miterlimit:10;" x1="260.053" y1="170.721" x2="276.543" y2="170.721"/>
				
					<line style="fill:none;stroke:#FFFFFF;stroke-width:3;stroke-linecap:round;stroke-linejoin:round;stroke-miterlimit:10;" x1="238.214" y1="170.721" x2="254.704" y2="170.721"/>
				
					<line style="fill:none;stroke:#263238;stroke-width:3;stroke-linecap:round;stroke-linejoin:round;stroke-miterlimit:10;" x1="182.949" y1="170.721" x2="231.083" y2="170.721"/>
			</g>
		</g>
		<g>
			
				<line style="fill:none;stroke:#263238;stroke-width:3;stroke-linecap:round;stroke-linejoin:round;stroke-miterlimit:10;" x1="141.055" y1="246.934" x2="157.545" y2="246.934"/>
			
				<line style="fill:none;stroke:#FFFFFF;stroke-width:3;stroke-linecap:round;stroke-linejoin:round;stroke-miterlimit:10;" x1="141.055" y1="255.402" x2="203.005" y2="255.402"/>
			
				<line style="fill:none;stroke:#263238;stroke-width:3;stroke-linecap:round;stroke-linejoin:round;stroke-miterlimit:10;" x1="236.877" y1="255.402" x2="298.827" y2="255.402"/>
			
				<line style="fill:none;stroke:#263238;stroke-width:3;stroke-linecap:round;stroke-linejoin:round;stroke-miterlimit:10;" x1="207.016" y1="255.402" x2="231.529" y2="255.402"/>
			
				<line style="fill:none;stroke:#263238;stroke-width:3;stroke-linecap:round;stroke-linejoin:round;stroke-miterlimit:10;" x1="141.055" y1="263.87" x2="176.71" y2="263.87"/>
			
				<line style="fill:none;stroke:#263238;stroke-width:3;stroke-linecap:round;stroke-linejoin:round;stroke-miterlimit:10;" x1="181.166" y1="263.87" x2="216.821" y2="263.87"/>
			
				<line style="fill:none;stroke:#FFFFFF;stroke-width:3;stroke-linecap:round;stroke-linejoin:round;stroke-miterlimit:10;" x1="221.278" y1="263.87" x2="256.933" y2="263.87"/>
			
				<line style="fill:none;stroke:#263238;stroke-width:3;stroke-linecap:round;stroke-linejoin:round;stroke-miterlimit:10;" x1="261.39" y1="263.87" x2="276.543" y2="263.87"/>
			
				<line style="fill:none;stroke:#263238;stroke-width:3;stroke-linecap:round;stroke-linejoin:round;stroke-miterlimit:10;" x1="162.002" y1="246.934" x2="178.492" y2="246.934"/>
			<g>
				
					<line style="fill:none;stroke:#263238;stroke-width:3;stroke-linecap:round;stroke-linejoin:round;stroke-miterlimit:10;" x1="260.053" y1="246.934" x2="276.543" y2="246.934"/>
				
					<line style="fill:none;stroke:#FFFFFF;stroke-width:3;stroke-linecap:round;stroke-linejoin:round;stroke-miterlimit:10;" x1="238.214" y1="246.934" x2="254.704" y2="246.934"/>
				
					<line style="fill:none;stroke:#263238;stroke-width:3;stroke-linecap:round;stroke-linejoin:round;stroke-miterlimit:10;" x1="182.949" y1="246.934" x2="231.083" y2="246.934"/>
			</g>
		</g>
		<g>
			<g>
				
					<line style="fill:none;stroke:#263238;stroke-width:3;stroke-linecap:round;stroke-linejoin:round;stroke-miterlimit:10;" x1="233.757" y1="144.872" x2="250.248" y2="144.872"/>
				
					<line style="fill:none;stroke:#263238;stroke-width:3;stroke-linecap:round;stroke-linejoin:round;stroke-miterlimit:10;" x1="211.919" y1="144.872" x2="228.409" y2="144.872"/>
				
					<line style="fill:none;stroke:#263238;stroke-width:3;stroke-linecap:round;stroke-linejoin:round;stroke-miterlimit:10;" x1="156.654" y1="144.872" x2="204.788" y2="144.872"/>
			</g>
			<g>
				
					<line style="fill:none;stroke:#263238;stroke-width:3;stroke-linecap:round;stroke-linejoin:round;stroke-miterlimit:10;" x1="233.757" y1="160.025" x2="250.248" y2="160.025"/>
				
					<line style="fill:none;stroke:#263238;stroke-width:3;stroke-linecap:round;stroke-linejoin:round;stroke-miterlimit:10;" x1="211.919" y1="160.025" x2="228.409" y2="160.025"/>
				
					<line style="fill:none;stroke:#FFFFFF;stroke-width:3;stroke-linecap:round;stroke-linejoin:round;stroke-miterlimit:10;" x1="156.654" y1="160.025" x2="204.788" y2="160.025"/>
			</g>
			<g>
				
					<line style="fill:none;stroke:#263238;stroke-width:3;stroke-linecap:round;stroke-linejoin:round;stroke-miterlimit:10;" x1="173.144" y1="152.448" x2="156.654" y2="152.448"/>
				
					<line style="fill:none;stroke:#263238;stroke-width:3;stroke-linecap:round;stroke-linejoin:round;stroke-miterlimit:10;" x1="194.983" y1="152.448" x2="178.492" y2="152.448"/>
				
					<line style="fill:none;stroke:#FFFFFF;stroke-width:3;stroke-linecap:round;stroke-linejoin:round;stroke-miterlimit:10;" x1="250.248" y1="152.448" x2="202.114" y2="152.448"/>
			</g>
		</g>
		<g>
			<g>
				
					<line style="fill:none;stroke:#263238;stroke-width:3;stroke-linecap:round;stroke-linejoin:round;stroke-miterlimit:10;" x1="233.757" y1="197.908" x2="250.248" y2="197.908"/>
				
					<line style="fill:none;stroke:#263238;stroke-width:3;stroke-linecap:round;stroke-linejoin:round;stroke-miterlimit:10;" x1="211.919" y1="197.908" x2="228.409" y2="197.908"/>
				
					<line style="fill:none;stroke:#263238;stroke-width:3;stroke-linecap:round;stroke-linejoin:round;stroke-miterlimit:10;" x1="156.654" y1="197.908" x2="204.788" y2="197.908"/>
			</g>
			<g>
				
					<line style="fill:none;stroke:#263238;stroke-width:3;stroke-linecap:round;stroke-linejoin:round;stroke-miterlimit:10;" x1="233.757" y1="213.062" x2="250.248" y2="213.062"/>
				
					<line style="fill:none;stroke:#263238;stroke-width:3;stroke-linecap:round;stroke-linejoin:round;stroke-miterlimit:10;" x1="211.919" y1="213.062" x2="228.409" y2="213.062"/>
				
					<line style="fill:none;stroke:#FFFFFF;stroke-width:3;stroke-linecap:round;stroke-linejoin:round;stroke-miterlimit:10;" x1="156.654" y1="213.062" x2="204.788" y2="213.062"/>
			</g>
			<g>
				
					<line style="fill:none;stroke:#263238;stroke-width:3;stroke-linecap:round;stroke-linejoin:round;stroke-miterlimit:10;" x1="173.144" y1="205.485" x2="156.654" y2="205.485"/>
				
					<line style="fill:none;stroke:#263238;stroke-width:3;stroke-linecap:round;stroke-linejoin:round;stroke-miterlimit:10;" x1="194.983" y1="205.485" x2="178.492" y2="205.485"/>
				
					<line style="fill:none;stroke:#FFFFFF;stroke-width:3;stroke-linecap:round;stroke-linejoin:round;stroke-miterlimit:10;" x1="250.248" y1="205.485" x2="202.114" y2="205.485"/>
			</g>
		</g>
		<g>
			<g>
				
					<line style="fill:none;stroke:#263238;stroke-width:3;stroke-linecap:round;stroke-linejoin:round;stroke-miterlimit:10;" x1="173.144" y1="221.975" x2="156.654" y2="221.975"/>
				
					<line style="fill:none;stroke:#263238;stroke-width:3;stroke-linecap:round;stroke-linejoin:round;stroke-miterlimit:10;" x1="194.983" y1="221.975" x2="178.492" y2="221.975"/>
				
					<line style="fill:none;stroke:#FFFFFF;stroke-width:3;stroke-linecap:round;stroke-linejoin:round;stroke-miterlimit:10;" x1="250.248" y1="221.975" x2="202.114" y2="221.975"/>
			</g>
			<g>
				
					<line style="fill:none;stroke:#263238;stroke-width:3;stroke-linecap:round;stroke-linejoin:round;stroke-miterlimit:10;" x1="173.144" y1="237.129" x2="156.654" y2="237.129"/>
				
					<line style="fill:none;stroke:#263238;stroke-width:3;stroke-linecap:round;stroke-linejoin:round;stroke-miterlimit:10;" x1="194.983" y1="237.129" x2="178.492" y2="237.129"/>
				
					<line style="fill:none;stroke:#FFFFFF;stroke-width:3;stroke-linecap:round;stroke-linejoin:round;stroke-miterlimit:10;" x1="250.248" y1="237.129" x2="202.114" y2="237.129"/>
			</g>
			<g>
				
					<line style="fill:none;stroke:#263238;stroke-width:3;stroke-linecap:round;stroke-linejoin:round;stroke-miterlimit:10;" x1="233.757" y1="229.552" x2="250.248" y2="229.552"/>
				
					<line style="fill:none;stroke:#263238;stroke-width:3;stroke-linecap:round;stroke-linejoin:round;stroke-miterlimit:10;" x1="211.919" y1="229.552" x2="228.409" y2="229.552"/>
				
					<line style="fill:none;stroke:#FFFFFF;stroke-width:3;stroke-linecap:round;stroke-linejoin:round;stroke-miterlimit:10;" x1="156.654" y1="229.552" x2="204.788" y2="229.552"/>
			</g>
		</g>
		<g>
			<rect x="129.673" y="116.081" style="fill:#263238;" width="5.265" height="5.2"/>
			<rect x="129.673" y="124.624" style="fill:#263238;" width="5.265" height="5.2"/>
			<rect x="129.673" y="133.167" style="fill:#263238;" width="5.265" height="5.2"/>
			<rect x="129.673" y="141.711" style="fill:#263238;" width="5.265" height="5.2"/>
			<rect x="129.673" y="150.254" style="fill:#263238;" width="5.265" height="5.2"/>
			<rect x="129.673" y="158.797" style="fill:#263238;" width="5.265" height="5.2"/>
			<rect x="129.673" y="167.34" style="fill:#263238;" width="5.265" height="5.2"/>
			<rect x="129.673" y="175.883" style="fill:#263238;" width="5.265" height="5.2"/>
			<rect x="129.673" y="184.427" style="fill:#263238;" width="5.265" height="5.2"/>
			<rect x="129.673" y="192.97" style="fill:#263238;" width="5.265" height="5.2"/>
			<rect x="129.673" y="201.513" style="fill:#263238;" width="5.265" height="5.2"/>
			<rect x="129.673" y="210.056" style="fill:#263238;" width="5.265" height="5.2"/>
			<rect x="129.673" y="218.599" style="fill:#263238;" width="5.265" height="5.2"/>
			<rect x="129.673" y="227.143" style="fill:#263238;" width="5.265" height="5.2"/>
			<rect x="129.673" y="235.686" style="fill:#263238;" width="5.265" height="5.2"/>
			<rect x="129.673" y="244.229" style="fill:#263238;" width="5.265" height="5.2"/>
			<rect x="129.673" y="252.772" style="fill:#263238;" width="5.265" height="5.2"/>
			<rect x="129.673" y="261.315" style="fill:#263238;" width="5.265" height="5.2"/>
		</g>
	</g>
</g>
<g id="Speech_Bubble">
	<g>
		<path style="fill:#263238;stroke:#263238;stroke-linecap:round;stroke-linejoin:round;stroke-miterlimit:10;" d="M380.038,22.661
			c-31.587,0-57.193,25.606-57.193,57.193c0,16.251,6.789,30.906,17.672,41.319l-8.139,15.193l19.961-6.474
			c8.208,4.553,17.648,7.155,27.7,7.155c31.587,0,57.193-25.606,57.193-57.193C437.231,48.268,411.625,22.661,380.038,22.661z"/>
		<path style="fill:#FFFFFF;stroke:#263238;stroke-linecap:round;stroke-linejoin:round;stroke-miterlimit:10;" d="M377.315,18.576
			c-31.587,0-57.193,25.606-57.193,57.193c0,16.251,6.789,30.907,17.671,41.319l-8.139,15.193l19.961-6.474
			c8.208,4.553,17.648,7.155,27.7,7.155c31.587,0,57.193-25.606,57.193-57.193C434.508,44.182,408.902,18.576,377.315,18.576z"/>
	</g>
</g>
<g id="Code">
	<g>
		<path style="fill:#92E3A9;" d="M358.164,99.339l-21.977-15.522v-8.223l21.977-15.676v8.299l-15.753,11.45l15.753,11.45V99.339z"/>
		<path style="fill:#92E3A9;" d="M364.848,102.106L381.6,39.862h7.147l-16.829,62.243H364.848z"/>
		<path style="fill:#92E3A9;" d="M395.431,99.339v-8.222l15.83-11.527l-15.83-11.373v-8.299l22.055,15.599v8.222L395.431,99.339z"/>
	</g>
	<g>
		<path style="fill:#263238;" d="M360.887,95.935L338.91,80.412V72.19l21.977-15.676v8.299l-15.753,11.45l15.753,11.45V95.935z"/>
		<path style="fill:#263238;" d="M367.572,98.701l16.752-62.243h7.147l-16.829,62.243H367.572z"/>
		<path style="fill:#263238;" d="M398.155,95.935v-8.222l15.83-11.527l-15.83-11.373v-8.299l22.055,15.599v8.222L398.155,95.935z"/>
	</g>
</g>
<g id="Hand_2">
	<g>
		<path style="fill:#263238;stroke:#263238;stroke-linecap:round;stroke-linejoin:round;stroke-miterlimit:10;" d="M333.834,383.53
			l34.63,28.588c0,0,2.043,5.447,6.809,11.575c4.766,6.128,60.597,29.277,60.597,29.277l9.532,2.723l-104.173-78.3L333.834,383.53z"
			/>
		<g>
			<path style="fill:#FFFFFF;stroke:#263238;stroke-linecap:round;stroke-linejoin:round;stroke-miterlimit:10;" d="M401.276,360.82
				c0,0-9.29-11.355-13.419-18.581c-4.129-7.226-9.979-24.086-14.452-34.065c-4.473-9.979-11.011-13.076-18.925-16.172
				c-7.914-3.097-11.011-2.409-11.011-0.344c0,2.065,3.097,5.85,3.097,5.85l-13.42,2.409c0,0-5.505-3.097-8.946-2.065
				c-3.441,1.032-9.979,7.57-9.979,7.57s-6.882-2.409-11.011-1.376c-4.129,1.032-15.484,6.538-20.301,8.946
				c-4.817,2.409-9.979,2.753-9.634,4.817c0.344,2.065,5.161,5.505,9.634,4.817s12.043-3.441,16.861-3.441s7.226,1.032,9.634,2.753
				c2.409,1.721,12.387,15.828,13.764,17.549c1.376,1.72,2.753,8.602,2.753,8.602s-6.067-2.593-9.852-6.034
				c-3.785-3.441-9.2-11.511-15.394-12.199c-6.194-0.688-12.949,4.813-9.508,7.566c3.441,2.753,6.882,4.473,9.29,7.57
				c2.409,3.097,6.194,12.387,12.731,22.366c6.538,9.979,20.645,16.172,20.645,16.172l29.248,12.043c0,0,7.57-17.893,21.678-22.71
				c14.108-4.817,18.237-6.882,18.237-6.882L401.276,360.82z"/>
			<path style="fill:none;stroke:#263238;stroke-linecap:round;stroke-linejoin:round;stroke-miterlimit:10;" d="M273.274,317.808
				c0,0,3.355-0.854,4.321-1.176c0.966-0.322,2.094-1.288,2.094-1.288"/>
			<path style="fill:none;stroke:#263238;stroke-linecap:round;stroke-linejoin:round;stroke-miterlimit:10;" d="M314.221,305.421
				c0,0,15.85,8.865,20.323,11.274c1.839,0.99,6.196,3.028,7.54,7.54c1.588,5.332,4.798,8.225,4.798,8.225"/>
			<path style="fill:none;stroke:#263238;stroke-linecap:round;stroke-linejoin:round;stroke-miterlimit:10;" d="M333.146,299.915
				c0,0,15.484,12.043,16.516,12.387c1.032,0.344,4.817,0.688,6.538,3.785c1.72,3.097,3.441,6.538,3.441,6.538"/>
			<path style="fill:none;stroke:#263238;stroke-linecap:round;stroke-linejoin:round;stroke-miterlimit:10;" d="M346.565,297.507
				c0,0,5.505-1.032,7.57,3.097c2.065,4.129,11.011,14.108,11.011,14.108"/>
			<path style="fill:none;stroke:#263238;stroke-linecap:round;stroke-linejoin:round;stroke-miterlimit:10;" d="M297.36,341.895
				c0,0,4.129-2.064,2.064-5.161c-2.064-3.097-6.194-3.097-6.194-3.097"/>
			<path style="fill:#92E3A9;stroke:#263238;stroke-linecap:round;stroke-linejoin:round;stroke-miterlimit:10;" d="
				M400.587,356.346c0,0-18.581,4.817-30.28,17.893s-11.699,24.086-10.667,25.807c1.032,1.721,23.398,13.764,23.398,13.764
				s13.764-26.495,23.398-33.033c9.634-6.538,16.516-8.258,16.516-8.258s-17.205-11.011-17.893-12.387
				C404.372,358.755,402.996,355.314,400.587,356.346z"/>
			<path style="fill:#92E3A9;stroke:#263238;stroke-linecap:round;stroke-linejoin:round;stroke-miterlimit:10;" d="
				M452.889,459.918c0,0-18.925-9.635-23.398-12.043c-4.473-2.409-35.097-18.925-35.097-18.925s-3.785-1.032-5.85-2.065
				c-2.064-1.032-5.161-0.688-6.538-7.914c-1.376-7.226,2.065-21.678,17.549-36.13c15.484-14.452,25.119-13.764,25.119-13.764
				s6.538-0.688,8.258,0.688c1.72,1.376,2.065,5.506,3.785,6.194c1.72,0.688,49.332,14.959,49.332,14.959"/>
			<path style="fill:none;stroke:#263238;stroke-linecap:round;stroke-linejoin:round;stroke-miterlimit:10;" d="M398.867,406.928
				c0,0-2.065,10.323,2.753,18.925"/>
			<path style="fill:none;stroke:#263238;stroke-linecap:round;stroke-linejoin:round;stroke-miterlimit:10;" d="M403.684,420.347
				c0,0-2.065,0.688,3.441,9.635"/>
		</g>
	</g>
</g>
<g id="Hand_1">
	<g>
		<path style="fill:#263238;stroke:#263238;stroke-linecap:round;stroke-linejoin:round;stroke-miterlimit:10;" d="M191.647,353.163
			c0,0-22.678,26.954-29.486,32.401c-6.809,5.447-12.936,8.851-12.936,8.851l-24.511,24.511c0,0,0.681,3.404-6.128,7.49
			c-6.809,4.085-20.426,8.851-23.83,10.213c-3.404,1.362-40.852,18.383-40.852,18.383L191.647,353.163z"/>
		<g>
			<path style="fill:#FFFFFF;stroke:#263238;stroke-linecap:round;stroke-linejoin:round;stroke-miterlimit:10;" d="
				M224.553,311.912c-2.384,0.715-10.968,0.238-10.968,0.238s-5.246-4.053-7.869-6.438c-2.623-2.384-9.299-16.453-12.637-17.168
				c-3.338-0.715-17.406,7.392-17.406,7.392s-11.445-5.007-14.307-4.53s-12.161,8.822-12.161,8.822s-12.876-1.908-15.26,1.908
				c-2.384,3.815-6.2,15.976-10.015,23.606c-3.815,7.63-17.645,27.898-17.645,27.898l-1.908,2.623c0,0,2.861,0.954,11.684,5.484
				c8.822,4.53,22.891,25.99,22.891,25.99s19.552-9.061,30.521-14.068c10.968-5.007,19.791-15.976,22.175-20.506
				c2.384-4.53,6.438-8.823,11.445-12.876c5.007-4.053,14.307-5.723,16.453-8.584c2.146-2.861-1.431-7.153-1.431-7.153
				s2.623-1.431,3.815-2.384c1.192-0.954,5.961-3.577,6.438-6.438S226.937,311.196,224.553,311.912z M187.832,334.802l4.531-13.83
				c1.908,1.431,10.253,4.531,10.253,4.531C197.132,326.934,187.832,334.802,187.832,334.802z"/>
			<path style="fill:none;stroke:#263238;stroke-linecap:round;stroke-linejoin:round;stroke-miterlimit:10;" d="M140.144,315.965
				c0,0-0.715-4.053-0.238-5.484c0.477-1.431,9.299-10.253,9.299-10.253"/>
			<polyline style="fill:none;stroke:#263238;stroke-linecap:round;stroke-linejoin:round;stroke-miterlimit:10;" points="
				147.774,320.734 149.681,314.535 175.672,295.936 			"/>
			<path style="fill:none;stroke:#263238;stroke-linecap:round;stroke-linejoin:round;stroke-miterlimit:10;" d="M160.65,325.265
				c0,0,0.954-5.961,2.146-6.915c1.192-0.954,10.253-3.1,10.253-3.1s13.83-11.922,16.214-11.922c2.384,0,19.791,9.299,24.321,8.822"
				/>
			<path style="fill:none;stroke:#263238;stroke-linecap:round;stroke-linejoin:round;stroke-miterlimit:10;" d="M221.214,313.104
				c0,0-3.105,0.01-1.436,1.917c1.669,1.908,5.246,0.954,6.915,0.477"/>
			<path style="fill:none;stroke:#263238;stroke-linecap:round;stroke-linejoin:round;stroke-miterlimit:10;" d="M202.616,325.503
				c0,0,8.584-5.007,15.499-0.954"/>
			<path style="fill:none;stroke:#263238;stroke-linecap:round;stroke-linejoin:round;stroke-miterlimit:10;" d="M215.969,325.98
				l-4.769,1.669c0,0,1.908,3.815,2.146,5.246c0.238,1.431,0.238,1.431,0.238,1.431"/>
			
				<line style="fill:none;stroke:#263238;stroke-linecap:round;stroke-linejoin:round;stroke-miterlimit:10;" x1="187.832" y1="334.802" x2="183.54" y2="344.34"/>
			<path style="fill:#92E3A9;stroke:#263238;stroke-linecap:round;stroke-linejoin:round;stroke-miterlimit:10;" d="M74.572,371.761
				c0,0,15.022-9.776,20.506-13.83c5.484-4.054,8.346-3.338,11.207-4.292c2.861-0.954,17.168,3.338,26.706,15.26
				c9.538,11.922,8.584,20.745,7.392,23.129c-1.192,2.384-31.236,20.506-31.236,20.506s-4.292-17.168-16.929-27.421
				C79.579,374.861,74.572,371.761,74.572,371.761z"/>
			<path style="fill:#92E3A9;stroke:#263238;stroke-linecap:round;stroke-linejoin:round;stroke-miterlimit:10;" d="M14.484,400.288
				c0,0,27.828-17.005,32.466-19.797c4.638-2.792,10.008-6.599,10.008-6.599s1.465-7.36,8.544-7.614
				c7.079-0.254,13.914,2.538,23.19,7.614c9.276,5.076,20.749,23.604,21.969,30.964c1.22,7.36,3.661,9.645,1.709,14.467
				c-1.953,4.822-9.276,5.076-10.741,5.076c-1.465,0-4.882,3.046-4.882,3.046l-52.238,34.01"/>
			<path style="fill:none;stroke:#263238;stroke-linecap:round;stroke-linejoin:round;stroke-miterlimit:10;" d="M100.83,411.477
				c0,0,2.184,1.622-2.184,8.434"/>
			<path style="fill:none;stroke:#263238;stroke-linecap:round;stroke-linejoin:round;stroke-miterlimit:10;" d="M97.711,414.72
				c0,0-0.312,7.136-6.863,13.624"/>
		</g>
	</g>
</g>
</svg>
