<svg xmlns="http://www.w3.org/2000/svg" viewBox="0 0 500 500"><g id="freepik--background-complete--inject-3"><rect x="416.78" y="398.49" width="33.12" height="0.25" style="fill:#ebebeb"></rect><rect x="322.53" y="401.21" width="8.69" height="0.25" style="fill:#ebebeb"></rect><rect x="396.59" y="389.21" width="19.19" height="0.25" style="fill:#ebebeb"></rect><rect x="52.46" y="390.89" width="43.19" height="0.25" style="fill:#ebebeb"></rect><rect x="104.56" y="390.89" width="6.33" height="0.25" style="fill:#ebebeb"></rect><rect x="131.47" y="395.11" width="93.68" height="0.25" style="fill:#ebebeb"></rect><path d="M237,337.8H43.92a5.71,5.71,0,0,1-5.71-5.71V60.66A5.71,5.71,0,0,1,43.92,55H237a5.71,5.71,0,0,1,5.71,5.71V332.09A5.71,5.71,0,0,1,237,337.8ZM43.92,55.2a5.47,5.47,0,0,0-5.46,5.46V332.09a5.47,5.47,0,0,0,5.46,5.46H237a5.47,5.47,0,0,0,5.46-5.46V60.66A5.47,5.47,0,0,0,237,55.2Z" style="fill:#ebebeb"></path><path d="M453.31,337.8H260.21a5.72,5.72,0,0,1-5.71-5.71V60.66A5.72,5.72,0,0,1,260.21,55h193.1A5.71,5.71,0,0,1,459,60.66V332.09A5.71,5.71,0,0,1,453.31,337.8ZM260.21,55.2a5.47,5.47,0,0,0-5.46,5.46V332.09a5.47,5.47,0,0,0,5.46,5.46h193.1a5.47,5.47,0,0,0,5.46-5.46V60.66a5.47,5.47,0,0,0-5.46-5.46Z" style="fill:#ebebeb"></path><rect y="382.4" width="500" height="0.25" style="fill:#ebebeb"></rect><path d="M378.37,348.17c.12-12.13-1.12-25.32.76-36.56a11.51,11.51,0,0,0-.33-5.79c-4.16,2.69-4.63,13.39-4.76,17.73-3.47-10.43-5.59-22.13-4.46-32.82.41-3.88.41-9.63-3.67-6.12-3.62,3.11-2.28,13.94-1.45,17.56-2.74-8.49-6.13-17-8.88-25.25-3.26-9.81-11.67-7.41-5.37,2.08,4.12,6.2,10.19,20.69,10.19,20.69s-19.32-23.43-22.67-19.6c-2.47,2.82,19.46,18.65,22.89,24.29-2.95-3-13.09-10.09-15-5.92-1,2.28,2.81,3.19,5.23,4.38,6.47,3.2,11.79,7.58,15.06,14.25,1.55,3.54,2.26,5.34,3.55,9-2-3.15-10.41-10.23-11.71-7.33-.88,2,4.26,5.81,6.78,8.33,6.2,6.21,9.4,13,11.13,21.51Z" style="fill:#e6e6e6"></path><path d="M383.89,346.62c2.76-10,6.89-20.46,8-30.1a9.76,9.76,0,0,1,1.64-4.67c2.77,3.19.62,12-.29,15.63,5.3-7.71,9.8-16.78,11.4-25.8.58-3.27,1.94-8,4.45-4.15,2.22,3.41-1.43,12-3,14.72,4.25-6.3,9-12.44,13.22-18.57,5-7.26,11.3-3.31,3.9,3-4.83,4.1-13.22,14.53-13.22,14.53s21.35-14.61,23.18-10.69c1.36,2.89-20.32,10.67-24.46,14.48,3.11-1.73,13.09-5.17,13.64-1.32.3,2.11-3.06,2-5.31,2.35-6.06,1.09-11.45,3.42-15.69,8.11-2.11,2.53-3.12,3.83-5,6.52,2.41-2.1,10.93-5.92,11.31-3.24.26,1.82-4.86,3.75-7.51,5.22-6.54,3.62-10.75,8.39-14.19,15Z" style="fill:#e0e0e0"></path><path d="M382.41,350c-2.27-15.12-3-31.78-7.3-45.48a14.42,14.42,0,0,1-.59-7.29c5.65,2.64,8.09,15.9,9,21.29,2.52-13.61,3.13-28.57-.13-41.72-1.19-4.77-2.19-11.94,3.51-8.28,5.06,3.26,5.26,17,4.86,21.67,2-11.08,4.7-22.24,6.69-33.05,2.37-12.81,13.28-11.27,7.06,1.66-4.06,8.45-9.12,27.59-9.12,27.59s20.05-32.59,24.88-28.4c3.57,3.1-21,26.65-24.33,34.29,3.16-4.2,14.57-14.86,17.63-10,1.68,2.67-2.95,4.47-5.76,6.38-7.52,5.11-13.4,11.5-16.31,20.39-1.33,4.68-1.91,7.05-2.88,11.83,2-4.28,11.22-14.57,13.34-11.17,1.43,2.29-4.31,8-7,11.57-6.65,8.83-9.47,17.8-10.14,28.77Z" style="fill:#f5f5f5"></path><path d="M361.49,341.24l4.65,35.62a7.21,7.21,0,0,0,7.14,6.27H394.5a7.21,7.21,0,0,0,7.14-6.27l4.65-35.62Z" style="fill:#ebebeb"></path><rect x="63.69" y="271.62" width="83.8" height="111.51" style="fill:#f0f0f0"></rect><rect x="147.49" y="271.62" width="15.99" height="111.51" style="fill:#e6e6e6"></rect><rect x="69.56" y="279.89" width="72.49" height="27.08" style="fill:#fafafa"></rect><path d="M96.35,279.89l.32,3.61a2.31,2.31,0,0,0,2.3,2.11h13.68a2.31,2.31,0,0,0,2.29-2.11l.32-3.61Z" style="fill:#ebebeb"></path><rect x="69.56" y="309.93" width="72.49" height="27.08" style="fill:#fafafa"></rect><path d="M96.35,309.93l.32,3.61a2.3,2.3,0,0,0,2.3,2.1h13.68a2.3,2.3,0,0,0,2.29-2.1l.32-3.61Z" style="fill:#ebebeb"></path><rect x="69.56" y="339.97" width="72.49" height="27.08" style="fill:#fafafa"></rect><path d="M96.35,340l.32,3.61a2.3,2.3,0,0,0,2.3,2.1h13.68a2.3,2.3,0,0,0,2.29-2.1l.32-3.61Z" style="fill:#ebebeb"></path></g><g id="freepik--Shadow--inject-3"><ellipse id="freepik--path--inject-3" cx="245.18" cy="412.39" rx="193.89" ry="11.32" style="fill:#f5f5f5"></ellipse></g><g id="freepik--Artboard--inject-3"><polygon points="355.47 244.89 162.62 244.89 174.11 80.54 366.96 80.54 355.47 244.89" style="fill:#263238"></polygon><polygon points="355.47 244.89 162.62 244.89 174.11 80.54 366.96 80.54 355.47 244.89" style="fill:#fff;opacity:0.9"></polygon><polygon points="165.65 201.55 162.62 244.89 355.47 244.89 358.5 201.55 165.65 201.55" style="opacity:0.1"></polygon><path d="M320.25,205.05h0a.89.89,0,0,1-.91-1l1.33-32.32h3.8l-3.18,32.32A1.07,1.07,0,0,1,320.25,205.05Z" style="fill:#263238"></path><path d="M305.62,203.15h0a.89.89,0,0,1-.89-1.07l5.5-30.3H314l-7.4,30.57A1.06,1.06,0,0,1,305.62,203.15Z" style="fill:#263238"></path><path d="M335.14,203.15h0a1.05,1.05,0,0,0,1-1.07l-1.26-30.3h-3.8l3.12,30.57A.89.89,0,0,0,335.14,203.15Z" style="fill:#263238"></path><g style="opacity:0.6000000000000001"><path d="M320.25,205.05h0a.89.89,0,0,1-.91-1l1.33-32.32h3.8l-3.18,32.32A1.07,1.07,0,0,1,320.25,205.05Z" style="fill:#fff"></path><path d="M305.62,203.15h0a.89.89,0,0,1-.89-1.07l5.5-30.3H314l-7.4,30.57A1.06,1.06,0,0,1,305.62,203.15Z" style="fill:#fff"></path><path d="M335.14,203.15h0a1.05,1.05,0,0,0,1-1.07l-1.26-30.3h-3.8l3.12,30.57A.89.89,0,0,0,335.14,203.15Z" style="fill:#fff"></path></g><polygon points="235.63 90.56 366.26 90.56 366.96 80.54 236.34 80.54 235.63 90.56" style="fill:#263238"></polygon><polygon points="235.63 90.56 366.26 90.56 366.96 80.54 236.34 80.54 235.63 90.56" style="fill:#fff;opacity:0.7000000000000001"></polygon><polygon points="301.65 80.54 236.34 80.54 235.63 90.56 300.95 90.56 301.65 80.54" style="fill:#fff;opacity:0.30000000000000004"></polygon><polygon points="356.12 92.93 345.66 242.51 353.26 242.51 363.72 92.93 356.12 92.93" style="fill:#263238"></polygon><polygon points="356.12 92.93 345.66 242.51 353.26 242.51 363.72 92.93 356.12 92.93" style="fill:#fff;opacity:0.6000000000000001"></polygon><path d="M227.21,88.71h-47.5a1.45,1.45,0,0,1-1.47-1.58h0a1.73,1.73,0,0,1,1.7-1.58h47.5a1.46,1.46,0,0,1,1.47,1.58h0A1.72,1.72,0,0,1,227.21,88.71Z" style="fill:#263238"></path><path d="M227.21,88.71h-47.5a1.45,1.45,0,0,1-1.47-1.58h0a1.73,1.73,0,0,1,1.7-1.58h47.5a1.46,1.46,0,0,1,1.47,1.58h0A1.72,1.72,0,0,1,227.21,88.71Z" style="fill:#fff;opacity:0.5"></path><path d="M279.78,227.21h0a1.26,1.26,0,0,0,1.23-1.45l-6.53-37.42h-4.09l8.32,38A1.08,1.08,0,0,0,279.78,227.21Z" style="fill:#263238"></path><path d="M259.36,227.21h.06a1.27,1.27,0,0,0,1.25-1.33l-2.38-37.54h-4.1l4.09,37.9A1.08,1.08,0,0,0,259.36,227.21Z" style="fill:#263238"></path><g style="opacity:0.5"><path d="M279.78,227.21h0a1.26,1.26,0,0,0,1.23-1.45l-6.53-37.42h-4.09l8.32,38A1.08,1.08,0,0,0,279.78,227.21Z" style="fill:#fff"></path><path d="M259.36,227.21h.06a1.27,1.27,0,0,0,1.25-1.33l-2.38-37.54h-4.1l4.09,37.9A1.08,1.08,0,0,0,259.36,227.21Z" style="fill:#fff"></path></g><path d="M218.4,178.1h34.34L249,129.69c-.94-12.22-11-22-22.77-22h-8.9c-11.72,0-20.79,9.75-20.44,22L197.7,157Z" style="fill:#92E3A9"></path><path d="M218.4,178.1h34.34L249,129.69c-.94-12.22-11-22-22.77-22h-8.9c-11.72,0-20.79,9.75-20.44,22L197.7,157Z" style="fill:#fff;opacity:0.7000000000000001"></path><path d="M262.86,178.1H208.44L207,129.69c-.36-12.22,8.72-22,20.44-22h8.9c11.72,0,21.82,9.75,22.76,22Z" style="fill:#92E3A9"></path><path d="M253.13,194.72a45.6,45.6,0,0,0,33.25-15,46.41,46.41,0,0,0,11.94-27.3,6.85,6.85,0,0,0-6.86-7.38h-23a8.18,8.18,0,0,0-7.89,7.38c-.07.83-.15,1.66-.27,2.49-.06.47-.48,2.28-.26,1.48a44.3,44.3,0,0,1-1.53,4.87c-.23.59-.49,1.17-.75,1.74.15-.36-.55,1.06-.76,1.42a44.65,44.65,0,0,1-2.85,4.27c-.05.05-.15.19-.26.32s-.34.42-.42.5c-.54.59-1.09,1.17-1.67,1.74s-1.31,1.24-2,1.83l-.93.77-.78.58-1.34.87c-.68.43-1.38.83-2.09,1.22s-1.21.62-1.83.91a39.64,39.64,0,0,1-3.47-2c-.63-.42-1.22-.89-1.84-1.32,1.31.92-.37-.34-.73-.67a31.86,31.86,0,0,1-3.41-3.74c-.09-.12-.18-.25-.28-.37.18.21-.5-.75-.6-.91-.44-.73-.86-1.47-1.25-2.23s-.75-1.54-1.08-2.33c-.15-.35-.27-.72-.42-1.07.65,1.59,0-.16-.11-.43a32.43,32.43,0,0,1-1.08-5.2c-.05-.39-.07-.8-.13-1.19.26,1.75,0-.14,0-.47,0-1,0-2.07.08-3.11.23-3.86-2.84-7.56-6.87-7.38h-23a8.19,8.19,0,0,0-7.9,7.38c-1.09,17.92,9.05,33.58,25.32,39.82a38.75,38.75,0,0,0,14.52,2.45Z" style="fill:#92E3A9"></path><path d="M253.13,194.72a45.6,45.6,0,0,0,33.25-15,46.41,46.41,0,0,0,11.94-27.3,6.85,6.85,0,0,0-6.86-7.38h-23a8.18,8.18,0,0,0-7.89,7.38c-.07.83-.15,1.66-.27,2.49-.06.47-.48,2.28-.26,1.48a44.3,44.3,0,0,1-1.53,4.87c-.23.59-.49,1.17-.75,1.74.15-.36-.55,1.06-.76,1.42a44.65,44.65,0,0,1-2.85,4.27c-.05.05-.15.19-.26.32s-.34.42-.42.5c-.54.59-1.09,1.17-1.67,1.74s-1.31,1.24-2,1.83l-.93.77-.78.58-1.34.87c-.68.43-1.38.83-2.09,1.22s-1.21.62-1.83.91a39.64,39.64,0,0,1-3.47-2c-.63-.42-1.22-.89-1.84-1.32,1.31.92-.37-.34-.73-.67a31.86,31.86,0,0,1-3.41-3.74c-.09-.12-.18-.25-.28-.37.18.21-.5-.75-.6-.91-.44-.73-.86-1.47-1.25-2.23s-.75-1.54-1.08-2.33c-.15-.35-.27-.72-.42-1.07.65,1.59,0-.16-.11-.43a32.43,32.43,0,0,1-1.08-5.2c-.05-.39-.07-.8-.13-1.19.26,1.75,0-.14,0-.47,0-1,0-2.07.08-3.11.23-3.86-2.84-7.56-6.87-7.38h-23a8.19,8.19,0,0,0-7.9,7.38c-1.09,17.92,9.05,33.58,25.32,39.82a38.75,38.75,0,0,0,14.52,2.45Z" style="fill:#fff;opacity:0.6000000000000001"></path><path d="M283.56,152.45c-.07.83-.14,1.66-.26,2.49-.08.52-.6,2.73-.16,1.09a47,47,0,0,1-1.64,5.26c-.3.76-.63,1.5-1,2.23.7-1.51-.28.49-.53.93a44.75,44.75,0,0,1-2.86,4.27c-.14.19-.94,1.21-.32.42s-.19.22-.35.4c-.55.59-1.1,1.17-1.68,1.74s-1.31,1.24-2,1.83c-.3.26-.61.52-.93.77-.16.13-1.53,1.12-.65.51.72-.5-1.21.78-1.47.94-.68.43-1.38.83-2.08,1.22s-1.44.73-2.17,1.07c-.22.11-1.41.62-.48.23s-.6.21-.79.28a37.24,37.24,0,0,1-4.69,1.33c-.51.1-2.74.44-1.06.24q-1.55.18-3.09.24a39,39,0,0,1-5-.17c-.39,0-1.34-.3.14,0-.39-.09-.79-.14-1.18-.21-.88-.18-1.74-.39-2.59-.63s-1.5-.45-2.23-.72c-.36-.13-.71-.29-1.08-.41-1-.32,1,.56.12.05-1.4-.8-2.86-1.47-4.21-2.38-.63-.42-1.22-.89-1.84-1.32,1.31.92-.37-.34-.73-.67a31.86,31.86,0,0,1-3.41-3.74c-.23-.29-.45-.6-.67-.9,1,1.38-.08-.17-.21-.38-.44-.73-.86-1.47-1.25-2.23s-.75-1.54-1.08-2.33c-.15-.35-.27-.72-.42-1.07.65,1.59,0-.16-.11-.43a32.43,32.43,0,0,1-1.08-5.2c-.05-.39-.07-.8-.13-1.19.26,1.75,0-.14,0-.47,0-1,0-2.07.08-3.11.23-3.86-2.84-7.56-6.87-7.38a8.17,8.17,0,0,0-7.89,7.38c-1.1,17.92,9.05,33.58,25.32,39.82,15.63,6,35.49.75,47.28-12.52a46.41,46.41,0,0,0,11.94-27.3,6.85,6.85,0,0,0-6.86-7.38,8.2,8.2,0,0,0-7.9,7.38Z" style="fill:#92E3A9"></path><g style="opacity:0.7000000000000001"><path d="M283.56,152.45c-.07.83-.14,1.66-.26,2.49-.08.52-.6,2.73-.16,1.09a47,47,0,0,1-1.64,5.26c-.3.76-.63,1.5-1,2.23.7-1.51-.28.49-.53.93a44.75,44.75,0,0,1-2.86,4.27c-.14.19-.94,1.21-.32.42s-.19.22-.35.4c-.55.59-1.1,1.17-1.68,1.74s-1.31,1.24-2,1.83c-.3.26-.61.52-.93.77-.16.13-1.53,1.12-.65.51.72-.5-1.21.78-1.47.94-.68.43-1.38.83-2.08,1.22s-1.44.73-2.17,1.07c-.22.11-1.41.62-.48.23s-.6.21-.79.28a37.24,37.24,0,0,1-4.69,1.33c-.51.1-2.74.44-1.06.24q-1.55.18-3.09.24a39,39,0,0,1-5-.17c-.39,0-1.34-.3.14,0-.39-.09-.79-.14-1.18-.21-.88-.18-1.74-.39-2.59-.63s-1.5-.45-2.23-.72c-.36-.13-.71-.29-1.08-.41-1-.32,1,.56.12.05-1.4-.8-2.86-1.47-4.21-2.38-.63-.42-1.22-.89-1.84-1.32,1.31.92-.37-.34-.73-.67a31.86,31.86,0,0,1-3.41-3.74c-.23-.29-.45-.6-.67-.9,1,1.38-.08-.17-.21-.38-.44-.73-.86-1.47-1.25-2.23s-.75-1.54-1.08-2.33c-.15-.35-.27-.72-.42-1.07.65,1.59,0-.16-.11-.43a32.43,32.43,0,0,1-1.08-5.2c-.05-.39-.07-.8-.13-1.19.26,1.75,0-.14,0-.47,0-1,0-2.07.08-3.11.23-3.86-2.84-7.56-6.87-7.38a8.17,8.17,0,0,0-7.89,7.38c-1.1,17.92,9.05,33.58,25.32,39.82,15.63,6,35.49.75,47.28-12.52a46.41,46.41,0,0,0,11.94-27.3,6.85,6.85,0,0,0-6.86-7.38,8.2,8.2,0,0,0-7.9,7.38Z" style="fill:#fff"></path></g><path d="M200.16,227.21h0a1.09,1.09,0,0,1-1-1.45l11.3-35.94a2.13,2.13,0,0,1,2-1.48h0a1.8,1.8,0,0,1,1.69,2.47l-12.76,35.55A1.28,1.28,0,0,1,200.16,227.21Z" style="fill:#263238"></path><path d="M220.57,227.21h0a1.09,1.09,0,0,1-1.07-1.33l7.28-35.82a2.16,2.16,0,0,1,2.09-1.72h0a1.83,1.83,0,0,1,1.78,2.33l-8.81,35.57A1.28,1.28,0,0,1,220.57,227.21Z" style="fill:#263238"></path><g style="opacity:0.5"><path d="M200.16,227.21h0a1.09,1.09,0,0,1-1-1.45l11.3-35.94a2.13,2.13,0,0,1,2-1.48h0a1.8,1.8,0,0,1,1.69,2.47l-12.76,35.55A1.28,1.28,0,0,1,200.16,227.21Z" style="fill:#fff"></path><path d="M220.57,227.21h0a1.09,1.09,0,0,1-1.07-1.33l7.28-35.82a2.16,2.16,0,0,1,2.09-1.72h0a1.83,1.83,0,0,1,1.78,2.33l-8.81,35.57A1.28,1.28,0,0,1,220.57,227.21Z" style="fill:#fff"></path></g><polygon points="329.53 165.68 327.55 165.68 322.83 158.34 325.68 158.34 329.53 165.68" style="fill:#263238"></polygon><polygon points="329.53 165.68 327.55 165.68 322.83 158.34 325.68 158.34 329.53 165.68" style="fill:#fff;opacity:0.7000000000000001"></polygon><polygon points="326.64 165.68 315.8 165.68 318.52 151.61 329.35 151.61 326.64 165.68" style="fill:#263238"></polygon><polygon points="326.64 165.68 315.8 165.68 318.52 151.61 329.35 151.61 326.64 165.68" style="fill:#fff;opacity:0.6000000000000001"></polygon><polygon points="326.01 164.6 316.85 164.6 319.14 152.69 328.31 152.69 326.01 164.6" style="fill:#fff;opacity:0.4"></polygon><polygon points="324.8 162.49 318.88 162.49 320.36 154.8 326.28 154.8 324.8 162.49" style="fill:#fff;opacity:0.4"></polygon><path d="M335.41,172.73H309.6a3.57,3.57,0,0,1-3.61-3.88l.24-3.4H339.8l-.24,3.4A4.23,4.23,0,0,1,335.41,172.73Z" style="fill:#263238"></path><path d="M335.41,172.73H309.6a3.57,3.57,0,0,1-3.61-3.88l.24-3.4H339.8l-.24,3.4A4.23,4.23,0,0,1,335.41,172.73Z" style="fill:#fff;opacity:0.8"></path><path d="M351.16,187.62l-.84,12.07a2,2,0,0,0,2,2.14h0a2.33,2.33,0,0,0,2.29-2.14l.85-12.07a2,2,0,0,0-2-2.14h0A2.33,2.33,0,0,0,351.16,187.62Z" style="fill:#fff;opacity:0.5"></path><polygon points="357.14 98.75 359.72 95.78 361.88 98.75 357.14 98.75" style="fill:#fff;opacity:0.5"></polygon><polygon points="352.21 237.09 349.63 240.05 347.47 237.09 352.21 237.09" style="fill:#fff;opacity:0.5"></polygon></g><g id="freepik--tools-2--inject-3"><polygon points="395.81 274.51 317.91 274.51 322.04 215.44 399.94 215.44 395.81 274.51" style="fill:#263238"></polygon><polygon points="395.81 274.51 317.91 274.51 322.04 215.44 399.94 215.44 395.81 274.51" style="fill:#fff;opacity:0.5"></polygon><polygon points="349.29 228.37 399.04 228.37 399.81 217.34 350.06 217.34 349.29 228.37" style="opacity:0.30000000000000004"></polygon><polygon points="399.81 217.34 321.91 217.34 322.04 215.44 399.94 215.44 399.81 217.34" style="opacity:0.5"></polygon><path d="M343.4,225.52H326.59a1.23,1.23,0,0,1-1.24-1.33h0a1.46,1.46,0,0,1,1.43-1.33h16.81a1.23,1.23,0,0,1,1.24,1.33h0A1.45,1.45,0,0,1,343.4,225.52Z" style="fill:#fff;opacity:0.5"></path><polygon points="333.3 240.35 324.23 240.35 324.86 231.28 333.93 231.28 333.3 240.35" style="fill:#92E3A9"></polygon><g style="opacity:0.9"><polygon points="337.6 244.98 328.34 244.98 328.6 241.31 330.35 241.31 330.21 243.23 335.98 243.23 336.38 237.47 334.46 237.47 334.59 235.72 338.25 235.72 337.6 244.98"></polygon></g><g style="opacity:0.5"><polygon points="396.62 220.54 388.55 220.54 388.65 219.11 396.72 219.11 396.62 220.54" style="fill:#fff"></polygon><polygon points="396.41 223.57 388.34 223.57 388.44 222.15 396.51 222.15 396.41 223.57" style="fill:#fff"></polygon><polygon points="396.2 226.61 388.12 226.61 388.22 225.18 396.3 225.18 396.2 226.61" style="fill:#fff"></polygon></g><g style="opacity:0.5"><polygon points="381.42 219.67 380.35 220.68 382.38 222.86 380.04 225.04 380.98 226.05 384.39 222.86 381.42 219.67" style="fill:#fff"></polygon><polygon points="377.79 219.67 376.71 220.68 378.74 222.86 376.4 225.04 377.34 226.05 380.75 222.86 377.79 219.67" style="fill:#fff"></polygon></g><polygon points="375.53 240.23 344.66 240.23 344.84 237.69 375.71 237.69 375.53 240.23" style="fill:#fff;opacity:0.2"></polygon><polygon points="391.31 242.13 378.25 242.13 378.69 235.79 391.76 235.79 391.31 242.13" style="fill:#263238"></polygon><polygon points="374.89 249.49 344.01 249.49 344.19 246.95 375.06 246.95 374.89 249.49" style="fill:#92E3A9"></polygon><polygon points="390.67 251.39 377.6 251.39 378.05 245.05 391.11 245.05 390.67 251.39" style="fill:#263238"></polygon><polygon points="374.24 258.75 343.36 258.75 343.54 256.21 374.42 256.21 374.24 258.75" style="fill:#fff;opacity:0.9"></polygon><polygon points="390.02 260.65 376.95 260.65 377.4 254.31 390.46 254.31 390.02 260.65" style="fill:#263238"></polygon><polygon points="389.37 269.92 373.66 269.92 374.11 263.58 389.81 263.58 389.37 269.92" style="fill:#263238"></polygon><polygon points="346.89 243.35 344.44 243.35 344.55 241.85 345.84 240.9 347 241.85 346.89 243.35" style="fill:#263238"></polygon><polygon points="345.6 261.88 343.14 261.88 343.25 260.38 344.54 259.43 345.7 260.38 345.6 261.88" style="fill:#263238"></polygon><polygon points="374 252.62 371.55 252.62 371.65 251.12 372.94 250.16 374.11 251.12 374 252.62" style="fill:#263238"></polygon><g style="opacity:0.30000000000000004"><polygon points="346.89 243.35 344.44 243.35 344.55 241.85 345.84 240.9 347 241.85 346.89 243.35" style="fill:#fff"></polygon><polygon points="345.6 261.88 343.14 261.88 343.25 260.38 344.54 259.43 345.7 260.38 345.6 261.88" style="fill:#fff"></polygon><polygon points="374 252.62 371.55 252.62 371.65 251.12 372.94 250.16 374.11 251.12 374 252.62" style="fill:#fff"></polygon></g></g><g id="freepik--tools-1--inject-3"><polygon points="174.5 213.98 96.6 213.98 100.73 154.92 178.63 154.92 174.5 213.98" style="fill:#263238"></polygon><polygon points="174.5 213.98 96.6 213.98 100.73 154.92 178.63 154.92 174.5 213.98" style="fill:#fff;opacity:0.5"></polygon><polygon points="127.97 167.85 177.72 167.85 178.5 156.82 128.74 156.82 127.97 167.85" style="opacity:0.30000000000000004"></polygon><polygon points="178.5 156.82 100.59 156.82 100.73 154.92 178.63 154.92 178.5 156.82" style="opacity:0.5"></polygon><path d="M122.09,165H105.28a1.23,1.23,0,0,1-1.24-1.34h0a1.45,1.45,0,0,1,1.42-1.33h16.81a1.22,1.22,0,0,1,1.24,1.33h0A1.45,1.45,0,0,1,122.09,165Z" style="fill:#fff;opacity:0.5"></path><polygon points="110.42 178.14 103.03 178.14 103.54 170.75 110.93 170.75 110.42 178.14" style="fill:#92E3A9"></polygon><g style="opacity:0.9"><polygon points="113.93 181.91 106.38 181.91 106.59 178.93 108.02 178.93 107.91 180.49 112.6 180.49 112.93 175.79 111.37 175.79 111.47 174.37 114.45 174.37 113.93 181.91"></polygon></g><g style="opacity:0.5"><polygon points="175.31 160.01 167.23 160.01 167.33 158.58 175.41 158.58 175.31 160.01" style="fill:#fff"></polygon><polygon points="175.09 163.04 167.02 163.04 167.12 161.62 175.19 161.62 175.09 163.04" style="fill:#fff"></polygon><polygon points="174.88 166.08 166.81 166.08 166.91 164.65 174.98 164.65 174.88 166.08" style="fill:#fff"></polygon></g><g style="opacity:0.5"><polygon points="162.51 172.17 154.43 172.17 154.53 170.75 162.61 170.75 162.51 172.17" style="fill:#fff"></polygon><polygon points="162.29 175.21 154.22 175.21 154.32 173.78 162.39 173.78 162.29 175.21" style="fill:#fff"></polygon><polygon points="162.08 178.24 154.01 178.24 154.11 176.82 162.18 176.82 162.08 178.24" style="fill:#fff"></polygon></g><g style="opacity:0.5"><polygon points="160.11 159.14 159.03 160.15 161.06 162.33 158.72 164.51 159.66 165.52 163.07 162.33 160.11 159.14" style="fill:#fff"></polygon><polygon points="156.47 159.14 155.39 160.15 157.42 162.33 155.09 164.51 156.02 165.52 159.44 162.33 156.47 159.14" style="fill:#fff"></polygon></g><g style="opacity:0.5"><polygon points="171.16 175.21 170.94 178.24 174.27 178.24 174.48 175.21 171.16 175.21" style="fill:#fff"></polygon><polygon points="171.26 173.78 174.58 173.78 174.79 170.75 171.47 170.75 171.26 173.78" style="fill:#fff"></polygon><polygon points="169.83 173.78 170.04 170.75 166.72 170.75 166.51 173.78 169.83 173.78" style="fill:#fff"></polygon><polygon points="169.73 175.21 166.41 175.21 166.19 178.24 169.52 178.24 169.73 175.21" style="fill:#fff"></polygon></g><polygon points="113.31 197.57 123.52 197.57 124.23 187.36 114.02 187.36 113.31 197.57" style="fill:#263238"></polygon><polygon points="113.31 197.57 123.52 197.57 124.23 187.36 114.02 187.36 113.31 197.57" style="fill:#fff;opacity:0.6000000000000001"></polygon><polygon points="124.47 197.57 134.68 197.57 135.4 187.36 125.18 187.36 124.47 197.57" style="fill:#263238"></polygon><polygon points="124.47 197.57 134.68 197.57 135.4 187.36 125.18 187.36 124.47 197.57" style="fill:#fff;opacity:0.4"></polygon><polygon points="112.52 208.76 122.74 208.76 123.45 198.55 113.24 198.55 112.52 208.76" style="fill:#92E3A9"></polygon><polygon points="112.52 208.76 122.74 208.76 123.45 198.55 113.24 198.55 112.52 208.76" style="fill:#fff;opacity:0.4"></polygon><polygon points="123.69 208.76 133.9 208.76 134.61 198.55 124.4 198.55 123.69 208.76" style="fill:#92E3A9"></polygon><polygon points="123.69 208.76 133.9 208.76 134.61 198.55 124.4 198.55 123.69 208.76" style="fill:#fff;opacity:0.2"></polygon><polygon points="102.14 197.57 112.36 197.57 113.07 187.36 102.86 187.36 102.14 197.57" style="fill:#263238"></polygon><polygon points="102.14 197.57 112.36 197.57 113.07 187.36 102.86 187.36 102.14 197.57" style="fill:#fff;opacity:0.8"></polygon><polygon points="101.36 208.76 111.57 208.76 112.29 198.55 102.08 198.55 101.36 208.76" style="fill:#92E3A9"></polygon><polygon points="101.36 208.76 111.57 208.76 112.29 198.55 102.08 198.55 101.36 208.76" style="fill:#fff;opacity:0.6000000000000001"></polygon><polygon points="157.17 208.76 167.39 208.76 168.1 198.55 157.89 198.55 157.17 208.76" style="fill:#92E3A9"></polygon><polygon points="157.17 208.76 167.39 208.76 168.1 198.55 157.89 198.55 157.17 208.76" style="opacity:0.4"></polygon><polygon points="146.79 197.57 157.01 197.57 157.72 187.36 147.51 187.36 146.79 197.57" style="fill:#263238"></polygon><polygon points="134.85 208.76 145.06 208.76 145.78 198.55 135.56 198.55 134.85 208.76" style="fill:#92E3A9"></polygon><polygon points="135.63 197.57 145.84 197.57 146.56 187.36 136.34 187.36 135.63 197.57" style="fill:#263238"></polygon><polygon points="135.63 197.57 145.84 197.57 146.56 187.36 136.34 187.36 135.63 197.57" style="fill:#fff;opacity:0.2"></polygon><polygon points="146.01 208.76 156.22 208.76 156.94 198.55 146.72 198.55 146.01 208.76" style="fill:#92E3A9"></polygon><polygon points="146.01 208.76 156.22 208.76 156.94 198.55 146.72 198.55 146.01 208.76" style="opacity:0.2"></polygon></g><g id="freepik--Character--inject-3"><rect x="167.74" y="344.26" width="5.69" height="31.75" style="fill:#263238"></rect><rect x="167.74" y="344.26" width="5.69" height="31.75" style="fill:#fff;opacity:0.2"></rect><path d="M199.58,405.83l-28.83-10.62L141.6,405.84a1.54,1.54,0,0,1-2.07-1.45h0a1.55,1.55,0,0,1,.89-1.4l30.33-14.07,30,14.07a1.52,1.52,0,0,1,.88,1.39h0A1.54,1.54,0,0,1,199.58,405.83Z" style="fill:#263238"></path><path d="M199.58,405.83l-28.83-10.62L141.6,405.84a1.54,1.54,0,0,1-2.07-1.45h0a1.55,1.55,0,0,1,.89-1.4l30.33-14.07,30,14.07a1.52,1.52,0,0,1,.88,1.39h0A1.54,1.54,0,0,1,199.58,405.83Z" style="fill:#fff;opacity:0.30000000000000004"></path><polygon points="163.95 397.69 170.75 395.21 177.23 397.6 177.23 391.95 170.75 388.92 163.95 392.07 163.95 397.69" style="opacity:0.2"></polygon><path d="M170.59,406.07h0a2.56,2.56,0,0,1-2.55-2.31l-.81-8.55V362H174v33.2l-.81,8.55A2.56,2.56,0,0,1,170.59,406.07Z" style="fill:#263238"></path><path d="M170.59,406.07h0a2.56,2.56,0,0,1-2.55-2.31l-.81-8.55V362H174v33.2l-.81,8.55A2.56,2.56,0,0,1,170.59,406.07Z" style="fill:#fff;opacity:0.30000000000000004"></path><circle cx="140.67" cy="410.51" r="3.75" style="fill:#92E3A9"></circle><circle cx="140.67" cy="410.51" r="1.87" style="fill:#263238"></circle><circle cx="201.65" cy="410.51" r="3.75" style="fill:#92E3A9"></circle><circle cx="201.65" cy="410.51" r="1.87" style="fill:#263238"></circle><ellipse cx="170.59" cy="410.51" rx="2.75" ry="3.75" style="fill:#92E3A9"></ellipse><rect x="140.67" y="276.6" width="4.43" height="12.33" style="fill:#263238"></rect><rect x="140.67" y="276.6" width="4.43" height="12.33" style="fill:#fff;opacity:0.30000000000000004"></rect><path d="M157.66,280.89a2.51,2.51,0,0,1,2.25,1.3,86.89,86.89,0,0,1,10.88,60,2.2,2.2,0,0,1-2.09,1.95c-1.63.11-30.65,0-31.7,0a2.93,2.93,0,0,1-2.95-3.41,81.11,81.11,0,0,0-10.33-55.78,2.7,2.7,0,0,1,2.44-4C127,280.88,155.81,280.93,157.66,280.89Z" style="fill:#92E3A9"></path><path d="M157.66,280.89a2.51,2.51,0,0,1,2.25,1.3,86.89,86.89,0,0,1,10.88,60,2.2,2.2,0,0,1-2.09,1.95c-1.63.11-30.65,0-31.7,0a2.93,2.93,0,0,1-2.95-3.41,81.11,81.11,0,0,0-10.33-55.78,2.7,2.7,0,0,1,2.44-4C127,280.88,155.81,280.93,157.66,280.89Z" style="opacity:0.2"></path><path d="M134.05,340.71a81.11,81.11,0,0,0-10.33-55.78c-1.8-3,2.89-5.73,4.69-2.74a86.88,86.88,0,0,1,10.87,60c-.62,3.43-5.85,2-5.23-1.45Z" style="fill:#92E3A9"></path><path d="M224.53,339.14a91.86,91.86,0,0,0-20.34-2.8c-7.06-.18-33.5,0-39.78,0a92,92,0,0,0-22.7,2.83c-4.66,1.19-3.22,7.92,1,8h80.59C227.69,347.33,229.3,340.36,224.53,339.14Z" style="fill:#92E3A9"></path><path d="M224.53,339.14a91.86,91.86,0,0,0-20.34-2.8c-7.06-.18-33.5,0-39.78,0a92,92,0,0,0-22.7,2.83c-4.66,1.19-3.22,7.92,1,8h80.59C227.69,347.33,229.3,340.36,224.53,339.14Z" style="opacity:0.30000000000000004"></path><path d="M143.88,347A83.48,83.48,0,0,1,185,347c5.08,1.3,7.24-6.55,2.16-7.85a92.3,92.3,0,0,0-45.4,0c-5.07,1.3-2.92,9.15,2.17,7.85Z" style="fill:#92E3A9"></path><path d="M151.43,279.89a1.78,1.78,0,0,0,1.84-1.41,45.17,45.17,0,0,0,0-22.16,1.78,1.78,0,0,0-1.66-1.41H134.23a2,2,0,0,0-2.17,2.46,40.75,40.75,0,0,1,0,20.05,2,2,0,0,0,2.18,2.47Z" style="fill:#92E3A9"></path><path d="M151.43,279.89a1.78,1.78,0,0,0,1.84-1.41,45.17,45.17,0,0,0,0-22.16,1.78,1.78,0,0,0-1.66-1.41H134.23a2,2,0,0,0-2.17,2.46,40.75,40.75,0,0,1,0,20.05,2,2,0,0,0,2.18,2.47Z" style="opacity:0.2"></path><path d="M132.06,277.42a40.75,40.75,0,0,0,0-20.05c-.63-2.47,3.2-3.53,3.83-1.05a44.93,44.93,0,0,1,0,22.16c-.63,2.47-4.46,1.42-3.83-1.06Z" style="fill:#92E3A9"></path><polygon points="214.54 379.95 209.83 400.46 215.68 402.72 224.1 382.09 214.54 379.95" style="fill:#ce7a63"></polygon><path d="M215.57,401.7l-5.31-2.84a.56.56,0,0,0-.69.12l-3.79,4.39a.93.93,0,0,0,.09,1.32.91.91,0,0,0,.16.11c2.23,1.15,4.26,2.09,7,3.57,3.25,1.75,2.22,1.7,6,3.8,2.29,1.27,4.11-1.11,3.21-1.77-4.16-3-4.71-5-5.58-7.54A2.21,2.21,0,0,0,215.57,401.7Z" style="fill:#263238"></path><path d="M167.14,316.33l28.72-1.59s47.71,7.47,47,20.81S222.77,391,222.77,391l-11.39-3.17s8.68-42.28,14.33-49.29c0,0-35.63-4.18-44.55-6.56C176.26,330.62,164.43,332.83,167.14,316.33Z" style="fill:#263238"></path><path d="M220.89,337.91a25.52,25.52,0,0,0-2.19-11.52c-2.65-6-24.49-9.59-34.94-11l-16.62.92c-2.71,16.5,9.12,14.29,14,15.6C188.05,333.77,210.85,336.67,220.89,337.91Z" style="opacity:0.30000000000000004"></path><polygon points="195.03 385.6 194.28 406.63 200.61 406.93 204.82 385.9 195.03 385.6" style="fill:#ce7a63"></polygon><path d="M200.16,405l-6.14.13a.6.6,0,0,0-.55.46l-1.17,5.79a1,1,0,0,0,.73,1.12.68.68,0,0,0,.2,0c2.55-.09,4.82-.27,8-.32,3.76-.07,2.81.4,7.23.38,2.65,0,3.09-3,2-3.17-5.17-.56-6.69-2.11-8.72-3.92A2.31,2.31,0,0,0,200.16,405Z" style="fill:#263238"></path><path d="M174.83,316.33s38.44,1.35,40.7,13.11-10.62,64.45-10.62,64.45H193.37s1.36-47.26,5.2-57.21c0,0-31.65,5-40-2.21-6-5.14,1.13-18.14,1.13-18.14Z" style="fill:#263238"></path><polygon points="210.48 385.3 224.81 389.29 222.19 394.8 209.13 391.55 210.48 385.3" style="fill:#263238"></polygon><polygon points="210.48 385.3 224.81 389.29 222.19 394.8 209.13 391.55 210.48 385.3" style="fill:#fff;opacity:0.30000000000000004"></polygon><polygon points="192.24 390.95 206.72 391.63 205.36 397.39 192.24 396.71 192.24 390.95" style="fill:#263238"></polygon><polygon points="192.24 390.95 206.72 391.63 205.36 397.39 192.24 396.71 192.24 390.95" style="fill:#fff;opacity:0.30000000000000004"></polygon><polygon points="207.17 291.2 225.8 291.52 235.16 287.48 241.16 292.58 238.79 295.2 232.6 294.13 224.73 296.31 206.16 297.42 207.17 291.2" style="fill:#ce7a63"></polygon><polygon points="207.17 291.2 225.8 291.52 235.16 287.48 241.16 292.58 238.79 295.2 232.6 294.13 224.73 296.31 206.16 297.42 207.17 291.2" style="opacity:0.1"></polygon><path d="M204.54,261.67s3.65,2.66,2.77,11.43-5.12,17.77-.38,18c.42,0,1.23,0,1.23,0v6.36s-11.77,3-12.51-2.77S204.54,261.67,204.54,261.67Z" style="fill:#92E3A9"></path><path d="M204.54,261.67s3.65,2.66,2.77,11.43-5.12,17.77-.38,18c.42,0,1.23,0,1.23,0v6.36s-11.77,3-12.51-2.77S204.54,261.67,204.54,261.67Z" style="fill:#fff;opacity:0.6000000000000001"></path><path d="M195.65,294.65c.74,5.8,12.51,2.77,12.51,2.77v-1.67c-7.2,1.23-6.3-1.9-5.86-3.69,4.23-17.09,2.58-25.7,1.64-28.68C201.86,269.43,195,289.73,195.65,294.65Z" style="opacity:0.1"></path><polygon points="206.52 289.89 206.53 298.76 209.93 298.42 209.93 290.45 206.52 289.89" style="fill:#92E3A9"></polygon><polygon points="206.52 289.89 206.53 298.76 209.93 298.42 209.93 290.45 206.52 289.89" style="fill:#fff;opacity:0.7000000000000001"></polygon><path d="M157.92,318.67s4-51,9.74-58.41,33.23-4.4,36.88,1.41c3.92,6.23-5.13,19.09-7.25,53.25C197.29,314.92,174.18,321.52,157.92,318.67Z" style="fill:#92E3A9"></path><path d="M157.92,318.67s4-51,9.74-58.41,33.23-4.4,36.88,1.41c3.92,6.23-5.13,19.09-7.25,53.25C197.29,314.92,174.18,321.52,157.92,318.67Z" style="fill:#fff;opacity:0.4"></path><path d="M188.77,254.28c0,.05-4.84-.45-4.84-.45l-1.69,2a35.13,35.13,0,0,1,3.65,13.34s2.46-3.87,4.06-3.94,3.05,1.87,3.05,1.87,2.05-2.13,3.21-2.13S199,268.2,199,268.2s-1.24-12.37-2.68-13.12S188.77,254.28,188.77,254.28Z" style="fill:#92E3A9"></path><path d="M188.77,254.28c0,.05-4.84-.45-4.84-.45l-1.69,2a35.13,35.13,0,0,1,3.65,13.34s2.46-3.87,4.06-3.94,3.05,1.87,3.05,1.87,2.05-2.13,3.21-2.13S199,268.2,199,268.2s-1.24-12.37-2.68-13.12S188.77,254.28,188.77,254.28Z" style="fill:#fff;opacity:0.7000000000000001"></path><path d="M185,254.83s-.45,1.85,1.69,5.75a6.28,6.28,0,0,0,6.19,3.5c1.69,0,4.06-1.19,3.43-5.19S191,254.89,185,254.83Z" style="fill:#ce7a63"></path><path d="M195.61,253.1l-6.34-6.89c-.6,5.28-2.66,8.28-3.86,9.62l.57,2.59c7.69,8.64,9.46.34,9.46.34C193.57,257.2,195.61,253.1,195.61,253.1Z" style="fill:#ce7a63"></path><path d="M191.81,249l-3-.3s.13,8.86,6.2,9.62c-1.13-1.78.56-5.19.56-5.19Z" style="fill:#263238;opacity:0.1"></path><path d="M204,234s5.87-1.26,6.26.9-4.71,2.76-4.71,2.76Z" style="fill:#263238"></path><path d="M190.14,238.63c-1.38,6.27-2.5,9.85-.33,14a8.33,8.33,0,0,0,14.75.17c2.88-5.09,4.65-14.48-.6-18.84a8.42,8.42,0,0,0-13.82,4.68Z" style="fill:#ce7a63"></path><path d="M198.86,243.33c-.15.5,0,1,.34,1.06s.69-.22.84-.71,0-1-.34-1.07S199,242.83,198.86,243.33Z" style="fill:#263238"></path><path d="M204.45,245.13c-.15.5,0,1,.34,1.07s.69-.22.84-.72,0-1-.34-1.07S204.59,244.63,204.45,245.13Z" style="fill:#263238"></path><path d="M197.65,240.94a.31.31,0,0,1-.13-.06.3.3,0,0,1,0-.42h0a3,3,0,0,1,2.74-.49.3.3,0,0,1,.17.39h0a.3.3,0,0,1-.39.18h0a2.36,2.36,0,0,0-2.13.37A.27.27,0,0,1,197.65,240.94Z" style="fill:#263238"></path><path d="M207.4,244a.28.28,0,0,1-.17-.22,2.55,2.55,0,0,0-1.27-1.87.32.32,0,0,1-.08-.43.31.31,0,0,1,.34-.12h0a3.14,3.14,0,0,1,1.6,2.31.3.3,0,0,1-.24.35h0A.25.25,0,0,1,207.4,244Z" style="fill:#263238"></path><path d="M198.42,251.22a4.92,4.92,0,0,0,.85.17.16.16,0,0,0,.19-.14h0a.18.18,0,0,0-.15-.19,4.65,4.65,0,0,1-3.54-2.28.17.17,0,0,0-.23-.08.17.17,0,0,0-.08.23A4.85,4.85,0,0,0,198.42,251.22Z" style="fill:#263238"></path><path d="M190.32,244.81s1.24,1.86,2,.49.23-6.69.23-6.69,3.59-2.43,5.92-2.68,10.34.25,11.67-5.33c1.14-4.77-7.39-1.92-7.39-1.92a4.43,4.43,0,0,0-5.32-3.29c-2.79.46-4.62,3.21-4.62,3.21s-5.2-.48-7.44,1.91c-1.68,1.8,0,4.34,0,4.34a6.09,6.09,0,0,0-1.9,5c.14,2.19,1.09,2.86,1.09,2.86s1.45,5.58,3.41,6.92c.9.61.47-.35.83-1.56A16.09,16.09,0,0,1,190.32,244.81Z" style="fill:#263238"></path><path d="M202.5,244.81a19.81,19.81,0,0,0,1.14,5,3,3,0,0,1-2.5-.29Z" style="fill:#ba4d3c"></path><path d="M205.77,243.69a3.9,3.9,0,0,0-2.16-.24l-1.92-.6a3.9,3.9,0,0,0-1.92-1,4.77,4.77,0,0,0-1.85-.31l-8.08-.27v.5L197,242a1.86,1.86,0,0,0-.39.7,2.77,2.77,0,0,0,5.28,1.65,1.74,1.74,0,0,0,.06-.89l1.1.35a1.78,1.78,0,0,0-.45.76,2.77,2.77,0,0,0,5.29,1.64C208.41,244.51,206.82,244,205.77,243.69Zm-4.36.5a2.27,2.27,0,0,1-4.33-1.35c.32-1,1.08-1,2.54-.53S201.73,243.16,201.41,244.19Zm6,1.86a2.27,2.27,0,0,1-4.33-1.34c.32-1,1.08-1,2.54-.54S207.73,245,207.41,246.05Z" style="fill:#92E3A9"></path><path d="M205.77,243.69a3.9,3.9,0,0,0-2.16-.24l-1.92-.6a3.9,3.9,0,0,0-1.92-1,4.77,4.77,0,0,0-1.85-.31l-8.08-.27v.5L197,242a1.86,1.86,0,0,0-.39.7,2.77,2.77,0,0,0,5.28,1.65,1.74,1.74,0,0,0,.06-.89l1.1.35a1.78,1.78,0,0,0-.45.76,2.77,2.77,0,0,0,5.29,1.64C208.41,244.51,206.82,244,205.77,243.69Zm-4.36.5a2.27,2.27,0,0,1-4.33-1.35c.32-1,1.08-1,2.54-.53S201.73,243.16,201.41,244.19Zm6,1.86a2.27,2.27,0,0,1-4.33-1.34c.32-1,1.08-1,2.54-.54S207.73,245,207.41,246.05Z" style="fill:#fff;opacity:0.4"></path><path d="M186.35,243.08a5.66,5.66,0,0,0,1.59,3.83c1.31,1.34,2.82.33,3.15-1.43.31-1.6,0-4.21-1.67-4.88S186.33,241.3,186.35,243.08Z" style="fill:#ce7a63"></path><polygon points="189.47 290.1 209.93 292.1 219.4 287.97 223.58 291.22 222.08 293.09 217.5 293.85 211.17 296.65 190 297.18 189.47 290.1" style="fill:#ce7a63"></polygon><path d="M174.48,290.93a54,54,0,0,1-7.17-19.31c-.12,9.4,1.65,28.3,18.1,26A15.1,15.1,0,0,1,174.48,290.93Z" style="opacity:0.1"></path><path d="M169.33,259.69c3.73-1.93,7.17,1.41,10.17,15.07s12,14.46,12,14.46l.8,8.21s-12.18,2.83-18.24-6.5S163.2,262.85,169.33,259.69Z" style="fill:#92E3A9"></path><path d="M169.33,259.69c3.73-1.93,7.17,1.41,10.17,15.07s12,14.46,12,14.46l.8,8.21s-12.18,2.83-18.24-6.5S163.2,262.85,169.33,259.69Z" style="fill:#fff;opacity:0.6000000000000001"></path><polygon points="190.5 287.97 191.66 298.67 195.18 298.21 194.09 288.43 190.5 287.97" style="fill:#92E3A9"></polygon><polygon points="190.5 287.97 191.66 298.67 195.18 298.21 194.09 288.43 190.5 287.97" style="fill:#fff;opacity:0.7000000000000001"></polygon></g><g id="freepik--Table--inject-3"><rect x="198.19" y="302.19" width="154.8" height="3.44" style="fill:#263238"></rect><rect x="198.19" y="302.19" width="80.25" height="3.44" style="fill:#fff;opacity:0.30000000000000004"></rect><rect x="278.45" y="302.19" width="74.55" height="3.44" style="fill:#fff;opacity:0.2"></rect><rect x="190.51" y="298.76" width="170.18" height="3.44" style="fill:#92E3A9"></rect><rect x="270.76" y="298.76" width="89.93" height="3.44" style="opacity:0.30000000000000004"></rect><polygon points="259.4 411.84 237.35 404.78 237.35 305.63 235.11 305.63 231.51 305.63 229.27 305.63 229.27 404.78 207.21 411.84 207.21 416.18 209.46 416.18 233.31 413.31 257.16 416.18 259.4 416.18 259.4 411.84" style="fill:#263238"></polygon><polygon points="259.4 411.84 237.35 404.78 237.35 305.63 235.11 305.63 231.51 305.63 229.27 305.63 229.27 404.78 207.21 411.84 207.21 416.18 209.46 416.18 233.31 413.31 257.16 416.18 259.4 416.18 259.4 411.84" style="fill:#fff;opacity:0.1"></polygon><polygon points="235.11 404.78 235.11 305.63 229.27 305.63 229.27 404.78 207.21 411.84 207.21 416.18 232.19 413.18 257.16 416.18 257.16 411.84 235.11 404.78" style="fill:#263238"></polygon><polygon points="235.11 404.78 235.11 305.63 229.27 305.63 229.27 404.78 207.21 411.84 207.21 416.18 232.19 413.18 257.16 416.18 257.16 411.84 235.11 404.78" style="fill:#fff;opacity:0.30000000000000004"></polygon><polygon points="343.98 411.84 321.92 404.78 321.92 305.63 319.68 305.63 316.09 305.63 313.85 305.63 313.85 404.78 291.79 411.84 291.79 416.18 294.03 416.18 317.88 413.31 341.74 416.18 343.98 416.18 343.98 411.84" style="fill:#263238"></polygon><polygon points="319.68 404.78 319.68 305.63 313.85 305.63 313.85 404.78 291.79 411.84 291.79 416.18 316.76 413.18 341.74 416.18 341.74 411.84 319.68 404.78" style="fill:#263238"></polygon><polygon points="319.68 404.78 319.68 305.63 313.85 305.63 313.85 404.78 291.79 411.84 291.79 416.18 316.76 413.18 341.74 416.18 341.74 411.84 319.68 404.78" style="fill:#fff;opacity:0.2"></polygon><polygon points="249.6 294.81 228.63 295.81 228.63 298.79 249.6 298.79 263.1 298.79 263.1 294.81 249.6 294.81" style="fill:#92E3A9"></polygon><polygon points="249.6 298.79 228.63 298.79 228.63 295.81 249.6 294.81 249.6 298.79" style="fill:#fff;opacity:0.30000000000000004"></polygon><rect x="249.6" y="294.81" width="13.5" height="3.98" style="fill:#fff;opacity:0.6000000000000001"></rect><path d="M213.32,298.79a1.39,1.39,0,0,1-1.24-2c1.26-2.54,4.9-3.71,8.09-3.71,3.39,0,5.18,1.32,5.62,4.19a1.38,1.38,0,0,1-1.38,1.54Z" style="fill:#92E3A9"></path><path d="M213.32,298.79a1.39,1.39,0,0,1-1.24-2c1.26-2.54,4.9-3.71,8.09-3.71,3.39,0,5.18,1.32,5.62,4.19a1.38,1.38,0,0,1-1.38,1.54Z" style="fill:#fff;opacity:0.6000000000000001"></path><path d="M320.79,240.06l-47.52-.24-5,47.66,47.57-.25a6.94,6.94,0,0,0,3.64-5.3l3.84-36.57A5.41,5.41,0,0,0,320.79,240.06Z" style="fill:#92E3A9"></path><path d="M320.79,240.06l-47.52-.24-5,47.66,47.57-.25a6.94,6.94,0,0,0,3.64-5.3l3.84-36.57A5.41,5.41,0,0,0,320.79,240.06Z" style="fill:#fff;opacity:0.5"></path><path d="M268.71,287.23l-.45.25,5-47.66.4.24a5.43,5.43,0,0,1,2.52,5.3l-3.84,36.57A6.94,6.94,0,0,1,268.71,287.23Z" style="fill:#92E3A9"></path><path d="M268.71,287.23l-.45.25,5-47.66.4.24a5.43,5.43,0,0,1,2.52,5.3l-3.84,36.57A6.94,6.94,0,0,1,268.71,287.23Z" style="fill:#fff;opacity:0.30000000000000004"></path><path d="M289.71,287.23l-.25.14,9.7-.05-.89-8.06-4.57-.67-.35,3.34A6.94,6.94,0,0,1,289.71,287.23Z" style="opacity:0.1"></path><polygon points="306.89 296.8 297.65 296.8 293.65 278.51 302.89 278.51 306.89 296.8" style="fill:#92E3A9"></polygon><polygon points="298.27 294.81 277.3 295.81 277.3 298.79 298.27 298.79 311.77 298.79 311.77 294.81 298.27 294.81" style="fill:#92E3A9"></polygon><polygon points="298.27 298.79 277.3 298.79 277.3 295.81 298.27 294.81 298.27 298.79" style="fill:#fff;opacity:0.30000000000000004"></polygon><rect x="298.27" y="294.81" width="13.5" height="3.98" style="fill:#fff;opacity:0.6000000000000001"></rect></g><g id="freepik--Cursor--inject-3"><polygon points="283.25 169.6 265.76 162.39 272.98 179.87 275.5 173.93 282.64 181.07 284.45 179.27 277.3 172.13 283.25 169.6" style="fill:#92E3A9"></polygon><polygon points="283.25 169.6 265.76 162.39 272.98 179.87 275.5 173.93 282.64 181.07 284.45 179.27 277.3 172.13 283.25 169.6" style="fill:#fff;opacity:0.9"></polygon><path d="M282.64,182l-6.93-6.93L273,181.53l-8.38-20.31,20.31,8.38-6.48,2.74,6.93,6.93Zm-7.36-9.17,7.36,7.36.91-.9-7.37-7.36,5.41-2.3-14.65-6,6,14.65Z" style="fill:#263238"></path><rect x="282.75" y="182.98" width="9.14" height="9.14" style="fill:#92E3A9"></rect><rect x="282.75" y="182.98" width="9.14" height="9.14" style="fill:#fff;opacity:0.9"></rect><path d="M292.31,192.54h-10v-10h10Zm-9.14-.85h8.29V183.4h-8.29Z" style="fill:#263238"></path><polygon points="290.5 186.91 287.95 186.91 287.95 184.36 286.68 184.36 286.68 186.91 284.13 186.91 284.13 188.19 286.68 188.19 286.68 190.74 287.95 190.74 287.95 188.19 290.5 188.19 290.5 186.91" style="fill:#263238"></polygon></g></svg>